<svg width="102" height="102" viewBox="0 0 102 102" fill="none" xmlns="http://www.w3.org/2000/svg">
<g clip-path="url(#clip0_1_257)">
<path d="M65.3187 -0.0498856C65.5666 -0.0500873 65.5666 -0.0500873 65.8194 -0.050293C68.2339 -0.0471689 70.5567 0.0303392 72.914 0.597575C73.0681 0.632822 73.2222 0.668068 73.381 0.704383C80.5642 2.36835 86.6532 5.96101 91.8397 11.1562C92.0258 11.3318 92.0258 11.3318 92.2156 11.511C98.237 17.2582 101.866 26.4455 102.07 34.6764C102.129 37.8788 102.135 41.0931 101.402 44.2265C101.363 44.3999 101.323 44.5733 101.282 44.752C99.0652 54.1949 93.2564 62.5031 85.0663 67.7343C81.2391 70.1014 77.1236 71.8003 72.7147 72.7148C72.6838 72.834 72.6528 72.9532 72.6208 73.076C71.4374 77.598 71.4374 77.598 70.5233 79.6874C70.4685 79.8143 70.4136 79.9411 70.3571 80.0718C68.5952 84.1076 66.1802 87.6481 63.1522 90.8437C62.9869 91.0196 62.8215 91.1955 62.6511 91.3767C57.0997 97.1148 49.672 100.588 41.8358 101.801C41.6218 101.836 41.4077 101.87 41.1872 101.906C40.3728 102.009 39.5793 102.039 38.7596 102.047C38.601 102.049 38.4423 102.051 38.2788 102.053C34.8735 102.087 31.6041 102.075 28.289 101.203C28.1132 101.159 27.9374 101.116 27.7563 101.07C25.369 100.471 23.1332 99.6822 20.9179 98.6132C20.7954 98.5554 20.673 98.4976 20.5469 98.438C18.2572 97.3549 16.2115 96.0544 14.1942 94.5292C14.0529 94.4229 13.9116 94.3165 13.766 94.2069C12.822 93.4819 11.9799 92.6979 11.1562 91.8398C10.9219 91.6056 10.9219 91.6056 10.683 91.3666C10.5104 91.194 10.3379 91.0215 10.1601 90.8437C10.0383 90.7335 9.91661 90.6233 9.79119 90.5098C4.71965 85.761 1.68764 78.6365 0.39834 71.9179C0.362869 71.7377 0.327397 71.5576 0.290851 71.372C-0.0510413 69.4373 -0.0792518 67.5261 -0.0748046 65.5678C-0.0747625 65.3965 -0.0747204 65.2252 -0.074677 65.0487C-0.0679101 62.2874 0.130433 59.6654 0.796777 56.9765C0.833019 56.8201 0.869261 56.6638 0.906601 56.5027C2.51652 49.6184 6.3771 43.2301 11.5546 38.4491C12.1142 38.1693 12.5284 38.2003 13.1483 38.2499C13.609 38.4616 13.609 38.4616 13.9452 38.8476C14.1819 39.6317 14.2323 40.0539 13.883 40.8024C13.4581 41.3577 12.9535 41.8244 12.4511 42.309C7.49044 47.182 4.75099 53.818 3.58584 60.5624C3.55082 60.7458 3.5158 60.9293 3.47971 61.1182C3.37409 61.8438 3.34722 62.5576 3.33915 63.2892C3.33721 63.4349 3.33527 63.5806 3.33327 63.7307C3.28596 68.2031 3.67963 72.2593 5.17959 76.4999C5.25047 76.7105 5.32135 76.9211 5.39437 77.138C6.45954 80.1235 8.05318 82.9405 9.96084 85.4648C10.0923 85.6407 10.2238 85.8166 10.3593 85.9978C13.464 89.9669 17.2488 92.9428 21.7147 95.2265C21.9379 95.341 22.1611 95.4556 22.391 95.5736C25.4135 97.0411 28.5782 97.8445 31.8749 98.414C32.0586 98.4492 32.2424 98.4843 32.4317 98.5205C33.1522 98.6251 33.8598 98.649 34.5861 98.6537C34.7296 98.6551 34.873 98.6565 35.0207 98.6579C35.4829 98.6614 35.945 98.6627 36.4071 98.663C36.5647 98.6631 36.7223 98.6633 36.8847 98.6634C39.1905 98.6603 41.381 98.5654 43.6288 98.0155C43.931 97.9493 44.2332 97.8832 44.5354 97.8171C50.5359 96.4345 55.6949 93.21 60.164 89.0507C60.3666 88.8643 60.3666 88.8643 60.5733 88.674C64.7855 84.6479 67.8246 78.7524 69.1288 73.1132C68.9316 73.1789 68.7344 73.2447 68.5312 73.3124C58.216 73.9461 48.4613 70.8061 40.7028 63.9484C33.9136 57.8471 29.3018 49.0123 28.6874 39.8437C28.6422 38.7069 28.6365 37.5696 28.6376 36.432C28.6377 36.2892 28.6378 36.1463 28.638 35.9992C28.6456 33.5941 28.6456 33.5941 28.8866 32.871C25.9516 33.6672 23.1741 34.6769 20.4757 36.091C20.3363 36.164 20.1969 36.237 20.0533 36.3122C19.9308 36.3783 19.8083 36.4444 19.6821 36.5125C19.0454 36.768 18.5657 36.6565 17.9296 36.457C17.419 36.0122 17.3444 35.7436 17.2448 35.0749C17.3542 34.3092 17.6079 34.0333 18.1288 33.4687C18.6164 33.1551 18.6164 33.1551 19.163 32.8905C19.3659 32.7918 19.5687 32.6932 19.7777 32.5916C19.9937 32.4907 20.2097 32.3898 20.4323 32.2858C20.6546 32.1807 20.8769 32.0755 21.106 31.9672C22.991 31.0949 24.8885 30.4139 26.8944 29.8827C27.1466 29.8157 27.3988 29.7487 27.6586 29.6796C28.1996 29.5415 28.7407 29.4089 29.2851 29.2851C29.3385 29.0604 29.3919 28.8357 29.4469 28.6042C31.1211 21.7871 34.2572 16.0835 39.0468 10.957C39.198 10.7949 39.3493 10.6329 39.5051 10.4659C46.2276 3.50139 55.7568 -0.042911 65.3187 -0.0498856ZM59.8957 4.57782C59.7931 4.67971 59.6906 4.7816 59.5849 4.88658C59.2425 5.22761 58.9021 5.57073 58.5618 5.91389C58.3164 6.15909 58.0709 6.40416 57.8253 6.64911C57.1593 7.31412 56.4951 7.98098 55.8313 8.6482C55.1371 9.34546 54.4412 10.0411 53.7455 10.737C52.5781 11.9051 51.4118 13.0744 50.2463 14.2444C48.7481 15.7483 47.2481 17.2504 45.7475 18.7519C44.4593 20.0409 43.172 21.3307 41.8848 22.6207C41.4699 23.0364 41.0549 23.4519 40.6399 23.8675C39.9894 24.5189 39.3394 25.1709 38.6899 25.8233C38.4508 26.0634 38.2114 26.3033 37.9719 26.543C37.6465 26.8687 37.3218 27.195 36.9972 27.5215C36.7237 27.7959 36.7237 27.7959 36.4446 28.0759C36.0358 28.4183 36.0358 28.4183 36.0585 28.6874C36.3017 28.6995 36.5449 28.7116 36.7955 28.724C37.1267 28.7408 37.458 28.7577 37.7892 28.7746C37.948 28.7824 38.1069 28.7902 38.2705 28.7983C38.433 28.8067 38.5954 28.815 38.7627 28.8236C38.9266 28.8294 39.0904 28.8352 39.2592 28.8411C39.8437 28.8866 39.8437 28.8866 40.4225 29.0184C41.4673 29.2173 42.1509 29.2575 43.0787 28.694C43.8006 28.1003 44.4407 27.4263 45.0866 26.7525C45.3396 26.4991 45.5932 26.2463 45.8473 25.994C46.5331 25.3099 47.21 24.6175 47.8855 23.9232C48.5939 23.1981 49.3101 22.4808 50.0256 21.7626C51.3781 20.4025 52.7233 19.0353 54.066 17.6655C55.5951 16.1063 57.1328 14.5558 58.671 13.0057C60.9341 10.7244 63.1943 8.44019 65.4457 6.14725C65.69 5.89852 65.9344 5.64995 66.1791 5.40155C66.5114 5.06404 66.843 4.72591 67.1745 4.38758C67.2727 4.28803 67.371 4.18848 67.4722 4.08591C67.9337 3.7014 67.9337 3.7014 68.1327 3.18742C67.2714 3.17754 66.4102 3.17032 65.5489 3.16553C65.2561 3.16353 64.9634 3.16082 64.6707 3.15736C64.2488 3.1525 63.827 3.15026 63.4052 3.14851C63.0249 3.14538 63.0249 3.14538 62.6369 3.14219C61.3848 3.22548 60.7711 3.70099 59.8957 4.57782ZM71.3878 4.46292C71.2882 4.56369 71.1886 4.66446 71.086 4.76828C70.9268 4.92692 70.9268 4.92692 70.7645 5.08876C70.4068 5.44572 70.0507 5.80409 69.6945 6.16247C69.4393 6.41771 69.1841 6.67286 68.9288 6.92793C68.234 7.62264 67.5404 8.31857 66.847 9.01472C66.123 9.74129 65.3978 10.4667 64.6727 11.1923C63.2989 12.5673 61.9261 13.9434 60.5537 15.3198C58.9916 16.8863 57.4283 18.4518 55.865 20.0171C52.6483 23.238 49.433 26.4603 46.2187 29.6835C46.5471 30.3404 47.2145 30.3956 47.8836 30.6224C48.0779 30.6865 48.2722 30.7506 48.4723 30.8166C48.7603 30.9161 48.7603 30.9161 49.054 31.0177C49.2393 31.0795 49.4246 31.1413 49.6155 31.2049C49.7853 31.2618 49.9551 31.3188 50.1301 31.3774C50.6775 31.4925 50.8778 31.4785 51.3983 31.2773C51.78 30.9515 52.1269 30.6268 52.4774 30.2701C52.5838 30.1642 52.6903 30.0582 52.7999 29.9491C53.1568 29.5932 53.5115 29.2353 53.8662 28.8773C54.1213 28.6219 54.3766 28.3668 54.632 28.1117C55.3256 27.4183 56.0174 26.723 56.7088 26.0274C57.4314 25.301 58.1558 24.5763 58.88 23.8514C60.2513 22.4782 61.6212 21.1035 62.9904 19.7282C64.5493 18.1627 66.1098 16.5989 67.6705 15.0352C70.8811 11.8183 74.0897 8.59926 77.2968 5.37883C76.7416 5.00871 76.3699 4.85836 75.7396 4.68C75.4621 4.60104 75.4621 4.60104 75.1789 4.52047C74.9862 4.4668 74.7934 4.41313 74.5949 4.35783C74.3046 4.27501 74.3046 4.27501 74.0085 4.19052C72.5692 3.69414 72.5692 3.69414 71.3878 4.46292ZM53.8045 5.05432C53.6511 5.11858 53.4976 5.18285 53.3395 5.24906C53.1755 5.32065 53.0116 5.39223 52.8427 5.46598C52.5879 5.57606 52.5879 5.57606 52.328 5.68835C48.3538 7.4314 44.9415 9.71254 41.8358 12.7499C41.6818 12.8917 41.5277 13.0334 41.3689 13.1795C37.8805 16.4656 34.6341 21.414 33.4687 26.0976C33.5344 26.2291 33.6001 26.3605 33.6679 26.496C40.768 19.3959 47.8682 12.2957 55.1835 4.98039C54.5099 4.75585 54.426 4.79161 53.8045 5.05432ZM79.5506 7.45641C79.4 7.60873 79.4 7.60873 79.2464 7.76412C79.1395 7.8707 79.0326 7.97727 78.9224 8.08707C78.562 8.44678 78.2031 8.80791 77.8441 9.16904C77.5871 9.42624 77.3299 9.68336 77.0726 9.94039C76.3724 10.6404 75.6735 11.3417 74.9748 12.0432C74.2451 12.7754 73.5143 13.5064 72.7836 14.2376C71.3993 15.6232 70.0159 17.0098 68.6329 18.3968C67.0588 19.9754 65.4835 21.5529 63.9081 23.1303C60.6666 26.3759 57.4265 29.623 54.1874 32.871C54.6873 33.3801 55.1504 33.8083 55.7594 34.1815C55.9006 34.2688 56.0418 34.3561 56.1874 34.4461C56.3327 34.5344 56.4781 34.6228 56.6278 34.7138C56.7763 34.8052 56.9247 34.8966 57.0776 34.9908C57.4417 35.2149 57.8067 35.4376 58.1718 35.6601C59.5437 34.5361 60.7784 33.2793 62.0289 32.0248C62.2763 31.7773 62.5238 31.5298 62.7714 31.2824C63.4402 30.6136 64.1084 29.9443 64.7764 29.2748C65.4759 28.5741 66.1759 27.874 66.8758 27.1738C68.1998 25.8493 69.5233 24.5242 70.8465 23.1989C72.3537 21.6895 73.8613 20.1807 75.3691 18.672C78.4693 15.5697 81.5688 12.4667 84.6679 9.3632C84.1719 8.85716 83.7293 8.44277 83.1099 8.09629C82.9705 8.01797 82.831 7.93964 82.6874 7.85894C82.5438 7.7801 82.4002 7.70126 82.2523 7.62004C82.1072 7.53812 81.9622 7.45619 81.8127 7.37179C80.5877 6.65583 80.5877 6.65583 79.5506 7.45641ZM86.3188 12.0437C86.1671 12.1971 86.1671 12.1971 86.0123 12.3537C85.8507 12.5148 85.8507 12.5148 85.6858 12.6791C85.3227 13.0416 84.961 13.4055 84.5993 13.7694C84.3402 14.0285 84.0811 14.2876 83.8219 14.5466C83.1164 15.252 82.4121 15.9586 81.708 16.6655C80.9727 17.4032 80.2364 18.1398 79.5001 18.8766C78.1051 20.2728 76.7112 21.67 75.3176 23.0676C73.7314 24.6582 72.1441 26.2477 70.5567 27.8372C67.2904 31.1076 64.0255 34.3795 60.7616 37.6523C60.9979 37.8885 60.9979 37.8885 61.2389 38.1295C62.2087 39.0993 63.1785 40.0692 64.1483 41.039C65.5202 39.915 66.755 38.6582 68.0054 37.4037C68.2529 37.1562 68.5004 36.9087 68.748 36.6613C69.4168 35.9925 70.0849 35.3232 70.753 34.6537C71.4524 33.953 72.1525 33.2529 72.8524 32.5527C74.1764 31.2282 75.4998 29.9031 76.8231 28.5778C78.3302 27.0684 79.8379 25.5597 81.3456 24.0509C84.4459 20.9486 87.5454 17.8456 90.6444 14.7421C90.4561 14.5204 90.2674 14.2989 90.0787 14.0775C89.9737 13.9542 89.8686 13.8308 89.7604 13.7037C89.3462 13.2299 88.9037 12.7906 88.453 12.3515C88.2763 12.1666 88.0997 11.9817 87.9176 11.7912C87.1688 11.0828 86.9798 11.3883 86.3188 12.0437ZM92.4374 17.332C83.8252 25.9442 75.213 34.5564 66.3397 43.4296C66.6127 44.112 66.832 44.6196 67.2129 45.2202C67.3015 45.3608 67.3901 45.5014 67.4814 45.6463C67.573 45.79 67.6647 45.9337 67.7592 46.0817C67.8524 46.2292 67.9456 46.3768 68.0417 46.5288C68.2705 46.8907 68.5003 47.252 68.7304 47.6132C70.0913 46.4949 71.3251 45.2531 72.5723 44.012C72.8182 43.7681 73.064 43.5242 73.3099 43.2803C74.1126 42.4839 74.9141 41.6865 75.7155 40.8888C75.852 40.7529 75.9885 40.617 76.1292 40.4771C77.4168 39.1955 78.7041 37.9136 79.9903 36.6307C81.6341 34.9913 83.2799 33.354 84.9283 31.7193C86.0887 30.5684 87.2468 29.4151 88.4032 28.2602C89.0937 27.5707 89.7852 26.8822 90.4791 26.1961C91.1306 25.552 91.7792 24.9051 92.4256 24.256C92.6637 24.018 92.9028 23.7809 93.1429 23.545C93.4698 23.2236 93.7929 22.8987 94.1152 22.5727C94.2972 22.3915 94.4792 22.2103 94.6667 22.0237C95.0855 21.5457 95.0855 21.5457 94.9957 20.9754C94.7303 20.2537 94.3553 19.6306 93.9564 18.9755C93.8768 18.8391 93.7972 18.7028 93.7152 18.5623C93.2493 17.7476 93.2493 17.7476 92.4374 17.332ZM95.713 25.1869C95.612 25.2884 95.5111 25.39 95.4071 25.4946C95.2469 25.6544 95.2469 25.6544 95.0836 25.8175C94.7231 26.1777 94.3633 26.5386 94.0035 26.8995C93.7464 27.1567 93.4892 27.4138 93.232 27.6709C92.5315 28.3714 91.8315 29.0725 91.1317 29.7737C90.4011 30.5055 89.67 31.2367 88.939 31.968C87.5536 33.354 86.1687 34.7406 84.784 36.1273C83.208 37.7055 81.6314 39.2831 80.0548 40.8607C76.8106 44.107 73.5671 47.354 70.3241 50.6015C70.4178 50.9159 70.5117 51.2302 70.6057 51.5446C70.6579 51.7196 70.7102 51.8947 70.7641 52.075C70.9821 52.792 71.2174 53.5024 71.4572 54.2123C71.502 54.3459 71.5468 54.4794 71.593 54.617C71.701 54.9387 71.8094 55.2604 71.9179 55.582C72.6875 55.2632 73.1909 54.7691 73.7854 54.193C73.8909 54.0912 73.9964 53.9894 74.1051 53.8845C74.4583 53.5432 74.8101 53.2004 75.1618 52.8575C75.4147 52.6123 75.6677 52.3672 75.9207 52.1221C78.2276 49.8843 80.5189 47.6303 82.8062 45.3725C84.4966 43.7044 86.1943 42.0445 87.9022 40.3943C89.1033 39.2325 90.2951 38.0616 91.4805 36.8838C92.1885 36.1809 92.9 35.4827 93.6219 34.794C94.3016 34.1454 94.9689 33.4863 95.6288 32.8176C95.8721 32.575 96.1195 32.3364 96.3711 32.1024C97.515 31.0461 97.515 31.0461 98.2147 29.6835C98.222 28.3564 97.7252 27.1062 97.2187 25.8984C97.1604 25.7588 97.1021 25.6193 97.0421 25.4756C96.9042 25.1506 96.763 24.827 96.621 24.5038C96.2172 24.5038 95.9827 24.9184 95.713 25.1869ZM32.0741 32.4726C31.8958 33.3945 31.8511 34.2863 31.8554 35.2235C31.8561 35.4707 31.8567 35.7179 31.8574 35.9725C31.8591 36.2269 31.8607 36.4813 31.8625 36.7433C31.8634 37.0031 31.8643 37.2628 31.8652 37.5305C31.8675 38.1687 31.8708 38.807 31.8749 39.4452C32.8823 38.6011 33.8289 37.7198 34.7566 36.7892C34.8917 36.6543 35.0268 36.5194 35.166 36.3804C35.4486 36.0979 35.731 35.8151 36.0132 35.5321C36.4474 35.0968 36.8827 34.6627 37.318 34.2286C37.5932 33.9533 37.8683 33.6779 38.1433 33.4025C38.274 33.2722 38.4047 33.1419 38.5394 33.0076C39.1514 32.5169 39.1514 32.5169 39.4452 31.8749C38.5446 31.8691 37.644 31.8656 36.7433 31.8625C36.4889 31.8608 36.2346 31.8591 35.9725 31.8574C35.7253 31.8568 35.4782 31.8561 35.2235 31.8555C34.9971 31.8544 34.7707 31.8534 34.5375 31.8523C33.184 31.8431 33.184 31.8431 32.0741 32.4726ZM40.7191 34.892C40.4851 35.1246 40.2507 35.3568 40.0161 35.5887C39.5264 36.0751 39.0409 36.5653 38.558 37.0584C37.9401 37.6888 37.3129 38.3089 36.6822 38.9264C36.1967 39.404 35.7166 39.8866 35.238 40.3709C35.0087 40.6017 34.7778 40.8308 34.5452 41.0583C33.2556 42.2483 33.2556 42.2483 32.5718 43.7996C32.6162 44.3124 32.7072 44.7359 32.871 45.2226C32.9126 45.3729 32.9542 45.5232 32.9971 45.6781C33.1091 46.0733 33.2409 46.4554 33.3815 46.8412C33.4281 46.9748 33.4747 47.1083 33.5227 47.2459C33.6356 47.5682 33.751 47.8897 33.8671 48.2109C34.4456 48.2705 34.4456 48.2705 34.7561 47.9931C34.8584 47.8902 34.9607 47.7874 35.066 47.6814C35.1842 47.5641 35.3024 47.4468 35.4241 47.3259C35.5523 47.1955 35.6806 47.0651 35.8127 46.9307C35.9488 46.7947 36.0849 46.6587 36.2252 46.5185C36.6761 46.0672 37.1249 45.6138 37.5737 45.1603C37.8853 44.8475 38.1971 44.5349 38.5091 44.2223C39.3308 43.3983 40.1507 42.5725 40.9703 41.7463C41.8065 40.904 42.6444 40.0634 43.4821 39.2227C45.1264 37.5719 46.7688 35.9193 48.4101 34.2655C47.8555 33.6677 47.3903 33.4824 46.6046 33.2445C46.3928 33.1783 46.1809 33.112 45.9626 33.0438C45.7184 32.9868 45.4742 32.9298 45.2226 32.871C45.0148 32.8025 45.0148 32.8025 44.8028 32.7325C42.93 32.2874 41.9161 33.6681 40.7191 34.892ZM97.6122 34.6248C97.507 34.7277 97.4017 34.8307 97.2933 34.9368C96.9378 35.2849 96.583 35.6338 96.2283 35.9827C95.9748 36.2314 95.7212 36.4801 95.4677 36.7287C93.1494 39.0038 90.8406 41.2885 88.5342 43.5757C86.983 45.1137 85.429 46.6488 83.8679 48.1768C82.5066 49.5092 81.1507 50.8467 79.8011 52.1908C79.0865 52.902 78.3695 53.6105 77.6462 54.3128C76.9649 54.9745 76.2911 55.643 75.6222 56.3172C75.3761 56.5628 75.1274 56.8059 74.876 57.0462C73.4608 58.3566 73.4608 58.3566 72.8139 60.1161C72.8608 60.8186 72.9668 61.4684 73.1132 62.1562C73.1408 62.508 73.1633 62.8603 73.1762 63.213C73.1846 63.3658 73.1929 63.5186 73.2015 63.676C73.2093 63.8237 73.2172 63.9713 73.2252 64.1235C73.2338 64.2819 73.2424 64.4404 73.2513 64.6036C73.2719 64.9831 73.2922 65.3626 73.3124 65.7421C74.6397 64.6506 75.8431 63.4402 77.0566 62.2261C77.292 61.9913 77.5274 61.7566 77.7628 61.5219C78.3988 60.8877 79.034 60.2529 79.6691 59.6179C80.066 59.2211 80.4631 58.8245 80.8602 58.4279C82.2457 57.0443 83.6306 55.6602 85.015 54.2756C86.3059 52.9846 87.5979 51.6947 88.8904 50.4054C90.0008 49.2975 91.1105 48.1889 92.2196 47.0797C92.8817 46.4175 93.5442 45.7557 94.2074 45.0945C94.83 44.4739 95.4516 43.8523 96.0725 43.2299C96.3008 43.0014 96.5294 42.7733 96.7585 42.5455C97.0702 42.2352 97.3808 41.9237 97.691 41.6119C97.8653 41.4378 98.0396 41.2636 98.2192 41.0841C98.9023 40.3151 98.8392 39.564 98.8319 38.59C98.8316 38.4493 98.8313 38.3087 98.831 38.1638C98.8299 37.7152 98.8274 37.2666 98.8249 36.818C98.8239 36.5136 98.8229 36.2092 98.8221 35.9048C98.8199 35.1592 98.8165 34.4135 98.8124 33.6679C98.3695 33.6679 97.9239 34.3177 97.6122 34.6248ZM51.2965 35.7129C51.1779 35.8319 51.0593 35.9509 50.937 36.0735C50.8007 36.2092 50.6644 36.345 50.5239 36.4849C50.2997 36.7113 50.2997 36.7113 50.071 36.9422C49.9136 37.0995 49.7561 37.2569 49.5939 37.4191C49.0712 37.942 48.55 38.4664 48.0287 38.9908C47.6676 39.3526 47.3064 39.7144 46.9451 40.0761C46.0899 40.9326 45.2357 41.79 44.3819 42.6479C43.4099 43.6243 42.4369 44.5995 41.4637 45.5747C39.4615 47.581 37.4607 49.5888 35.4608 51.5976C35.7638 52.3778 36.1194 53.079 36.5441 53.8014C36.663 54.0051 36.7819 54.2087 36.9044 54.4185C37.1991 54.8957 37.5058 55.3404 37.8515 55.7812C38.4832 55.5018 38.9081 55.1723 39.3946 54.6844C39.6125 54.4673 39.6125 54.4673 39.8348 54.2459C39.9921 54.0871 40.1494 53.9283 40.3115 53.7648C40.5624 53.514 40.5624 53.514 40.8183 53.2582C41.2758 52.8004 41.7325 52.3418 42.1888 51.8827C42.6661 51.4029 43.1446 50.9242 43.6229 50.4454C44.5282 49.5388 45.4325 48.6313 46.3364 47.7234C47.3657 46.6897 48.3961 45.6571 49.4266 44.6246C51.546 42.5009 53.6641 40.3759 55.7812 38.2499C55.5168 37.4568 55.0239 37.2553 54.3368 36.8554C54.2225 36.7871 54.1083 36.7188 53.9905 36.6484C53.6586 36.4503 53.3254 36.2544 52.9921 36.0585C52.8082 35.9435 52.6243 35.8284 52.4349 35.7099C51.9229 35.4194 51.7576 35.3269 51.2965 35.7129ZM58.371 40.0429C52.3227 46.0912 46.2744 52.1395 40.0429 58.371C40.6271 59.2474 41.1099 59.8954 41.8358 60.6247C42.0885 60.8824 42.0885 60.8824 42.3463 61.1453C42.826 61.5534 43.0148 61.7102 43.6288 61.7577C44.0347 61.5001 44.0347 61.5001 44.4129 61.0934C44.5665 60.9412 44.7201 60.7889 44.8784 60.632C45.0451 60.4618 45.2118 60.2916 45.3835 60.1162C45.5604 59.9394 45.7373 59.7626 45.9196 59.5804C46.4055 59.0949 46.8882 58.6063 47.3704 58.1172C47.8746 57.6068 48.3816 57.0992 48.8883 56.5913C49.8477 55.6288 50.8045 54.6637 51.7605 53.6978C52.8488 52.5983 53.9399 51.5017 55.0313 50.4053C57.2766 48.1496 59.5183 45.8904 61.7577 43.6288C61.4294 42.7274 60.971 42.1597 60.2885 41.4997C60.1924 41.403 60.0964 41.3063 59.9974 41.2067C59.4676 40.6847 59.0472 40.381 58.371 40.0429ZM63.7499 46.0195C57.8988 51.8705 52.0478 57.7216 46.0194 63.7499C46.8417 64.5722 47.4516 65.073 48.4225 65.63C48.5444 65.7049 48.6662 65.7798 48.7918 65.8569C49.19 66.0973 49.19 66.0973 49.8046 66.3398C50.427 66.117 50.8328 65.7594 51.2948 65.2959C51.4283 65.163 51.5618 65.03 51.6994 64.893C51.8437 64.7472 51.988 64.6015 52.1367 64.4514C52.2903 64.2978 52.4439 64.1442 52.6022 63.986C53.1097 63.4782 53.6159 62.9689 54.122 62.4597C54.4737 62.1073 54.8254 61.755 55.1772 61.4028C56.0083 60.5703 56.8386 59.7369 57.6684 58.9031C58.7061 57.8605 59.7452 56.8193 60.7842 55.7781C62.6371 53.9208 64.4889 52.0624 66.3397 50.203C66.0162 49.2064 66.0162 49.2064 65.5242 48.2879C65.4464 48.1668 65.3686 48.0457 65.2884 47.921C65.208 47.7989 65.1276 47.6768 65.0448 47.5509C64.9644 47.425 64.8841 47.299 64.8012 47.1692C64.3822 46.4838 64.3822 46.4838 63.7499 46.0195ZM97.2187 46.4179C89.987 53.6495 82.7554 60.8812 75.3046 68.3319C75.9764 68.5559 76.0767 68.5182 76.7061 68.272C76.8655 68.2098 77.0249 68.1476 77.1892 68.0835C77.3603 68.0135 77.5314 67.9434 77.7077 67.8713C77.9739 67.7627 77.9739 67.7627 78.2456 67.652C82.3655 65.9285 85.8476 63.4537 89.0507 60.3632C89.2076 60.2166 89.3645 60.0699 89.5262 59.9188C92.9994 56.5911 96.2504 51.5323 97.4179 46.8163C97.3193 46.6191 97.3193 46.6191 97.2187 46.4179ZM67.4826 53.4184C67.322 53.5793 67.3221 53.5793 67.1582 53.7434C67.0356 53.8658 66.9129 53.9882 66.7866 54.1142C66.6513 54.2502 66.516 54.3862 66.3767 54.5263C66.2348 54.6682 66.0929 54.81 65.9467 54.9562C65.4752 55.4278 65.0044 55.9002 64.5335 56.3726C64.2078 56.6987 63.882 57.0248 63.5562 57.3508C62.6967 58.211 61.8378 59.0719 60.979 59.9329C60.1034 60.8105 59.2273 61.6876 58.3512 62.5647C56.6306 64.2874 54.9108 66.0106 53.1913 67.7343C53.8377 68.1652 54.4791 68.3994 55.2084 68.6432C55.3332 68.6873 55.458 68.7313 55.5866 68.7767C55.8381 68.8613 56.0921 68.9391 56.348 69.0092C56.7772 69.1288 56.7772 69.1288 57.1592 69.274C57.6903 69.4181 58.0258 69.434 58.5702 69.328C59.5246 68.6846 60.3022 67.8767 61.1056 67.0573C61.3444 66.8198 61.5835 66.5826 61.8229 66.3457C62.3228 65.8488 62.8189 65.3484 63.3127 64.8453C63.9448 64.2018 64.5855 63.5676 65.2294 62.9357C65.7245 62.4478 66.2148 61.9552 66.7038 61.461C66.9383 61.2253 67.1742 60.991 67.4116 60.7582C68.705 59.5753 68.705 59.5753 69.4327 58.048C69.3886 57.583 69.2952 57.2122 69.1288 56.7773C69.0851 56.6015 69.0415 56.4257 68.9965 56.2445C68.9474 56.1037 68.8984 55.9629 68.8479 55.8177C68.7946 55.6617 68.7413 55.5057 68.6864 55.345C68.6311 55.189 68.5757 55.033 68.5187 54.8722C68.4345 54.6278 68.4345 54.6278 68.3487 54.3785C68.2119 53.9822 68.073 53.5867 67.9335 53.1913C67.7024 53.1691 67.7024 53.1691 67.4826 53.4184ZM69.0229 63.2066C68.8793 63.3489 68.7358 63.4912 68.5879 63.6379C68.433 63.7935 68.2782 63.9491 68.1187 64.1094C67.9601 64.2677 67.8015 64.4259 67.638 64.589C67.3023 64.9244 66.967 65.2604 66.6322 65.5969C66.1178 66.1134 65.6013 66.6279 65.0845 67.1421C64.7594 67.4675 64.4343 67.793 64.1094 68.1187C63.9538 68.2735 63.7982 68.4284 63.6378 68.5879C63.4244 68.8032 63.4244 68.8032 63.2066 69.0229C63.0804 69.1494 62.9542 69.2759 62.8242 69.4063C62.5118 69.7075 62.5118 69.7075 62.5546 70.1249C63.4552 70.1365 64.3558 70.1436 65.2565 70.1498C65.638 70.1548 65.638 70.1548 66.0273 70.1599C67.8181 70.1824 67.8181 70.1824 69.5272 69.7265C70.163 69.0907 70.1171 68.3568 70.1475 67.485C70.1465 67.2575 70.1454 67.0301 70.1444 66.7958C70.1437 66.548 70.1431 66.3002 70.1424 66.0448C70.1407 65.7888 70.1391 65.5328 70.1374 65.269C70.1365 65.0083 70.1356 64.7477 70.1346 64.4791C70.1323 63.8376 70.129 63.1961 70.1249 62.5546C69.5558 62.5546 69.4219 62.8086 69.0229 63.2066Z" fill="#D2AE6D"/>
</g>
<defs>
<clipPath id="clip0_1_257">
<rect width="102" height="102" fill="white"/>
</clipPath>
</defs>
</svg>
