<svg width="122" height="101" viewBox="0 0 122 101" fill="none" xmlns="http://www.w3.org/2000/svg">
<path d="M60.4035 11.6018C55.3027 12.4263 50.381 14.1636 45.8768 16.6959C43.3414 18.1388 42.8045 18.6394 43.0729 19.2872C43.3414 20.0234 44.1766 20.1706 45.1609 19.5817C45.668 19.3166 46.9208 18.6099 47.9052 18.0505L49.7546 17.0493L51.6338 19.0222C52.6778 20.0822 54.0798 21.2306 54.736 21.584C56.0485 22.2318 58.2856 22.379 59.2998 21.8196C60.4631 21.2012 62.76 21.4368 64.7883 22.379C67.4133 23.6158 69.382 23.6158 70.8138 22.3496C72.0666 21.2895 73.379 18.7572 74.1248 16.0481L74.6915 14.0752L75.7653 14.2519C78.0622 14.6053 85.0123 17.1671 85.0123 17.6382C85.0123 17.7266 84.0578 18.8161 82.9243 20.0234C78.0025 25.1764 76.6304 28.8277 78.7781 31.0951C79.9712 32.3613 81.3135 32.479 85.4895 31.7723C88.5917 31.2717 89.3673 31.2129 90.113 31.5073C91.7834 32.214 92.2905 33.6863 91.4255 35.3059C90.7394 36.6309 89.5761 36.9254 86.4142 36.6309C84.893 36.4837 82.1189 36.3659 80.2397 36.3954C77.3164 36.3954 76.5707 36.4837 75.2284 37.0726C72.6333 38.221 71.291 40.3117 71.291 43.2269C71.291 45.4648 71.7981 46.9371 73.1106 48.4094C74.4529 49.9111 76.3917 50.7945 78.8974 51.0595C81.9399 51.4129 83.6998 52.0312 84.4157 53.0029C85.2211 54.1219 85.7878 56.8898 86.2054 61.6012C86.7424 67.726 88.0548 71.7012 89.8446 72.614C90.292 72.8496 91.2763 73.0263 92.0519 73.0263C95.2734 73.0263 97.3614 70.1994 100.046 62.1901C100.941 59.5989 104.103 54.4753 105.863 52.8852L106.787 52.0018V54.2102C106.787 61.2478 103.625 70.1111 98.9125 76.2948C93.0064 84.0097 84.714 89.2216 74.8705 91.3712C71.0822 92.1662 63.446 92.2545 59.5981 91.489C51.5145 89.8989 44.5047 86.1887 38.6881 80.4761C37.2563 79.0627 36.093 77.826 36.093 77.7082C36.093 77.5904 36.958 76.6776 38.0318 75.6764C43.2519 70.7 46.3541 63.7213 46.7419 55.9476C47.0402 49.7639 45.6979 45.6709 41.0147 38.3094C36.6895 31.5073 34.0348 25.0881 32.782 18.4333C32.0064 14.4286 31.7976 13.8397 31.0519 13.8397C29.2622 13.8397 21.3873 21.6429 18.136 26.6487C13.9301 33.068 12.4089 38.2505 12.379 45.9359C12.379 52.0312 13.3037 56.0064 15.9585 61.2478C19.0607 67.3432 25.7722 74.1452 31.9766 77.4137C33.2592 78.091 34.3331 79.0038 35.3174 80.1817C40.5673 86.4242 49.5458 91.5478 58.7629 93.5207C62.3424 94.2863 71.2612 94.3158 74.8705 93.5502C82.5663 91.9306 89.0392 88.8094 94.6768 83.9802C104.58 75.4997 110.128 61.9546 108.875 49.3222C108.309 43.3152 107.026 38.8099 104.461 33.8925C98.7634 22.7913 88.4426 14.9292 75.7952 12.0435C72.4543 11.2779 63.8935 11.0423 60.4035 11.6018ZM72.3648 13.6336C72.6035 13.8397 71.7086 16.8432 70.9331 18.4333C70.0979 20.2295 69.0837 21.2012 68.0993 21.2012C67.6519 21.2012 66.3991 20.7889 65.3252 20.2884C62.8793 19.1694 61.1194 18.9338 59.3595 19.5522C57.3908 20.2295 56.3468 20.1411 55.0045 19.1694C53.7516 18.3155 52.2005 16.6371 52.2005 16.1954C52.2005 15.6653 58.912 13.8986 62.6406 13.4274C64.0724 13.2508 72.156 13.4274 72.3648 13.6336ZM31.1712 21.4957C32.6328 27.6793 34.87 32.7441 39.1057 39.4872C43.8186 46.9665 44.624 49.4694 44.3556 55.9181C44.2362 59.0983 44.0573 60.4528 43.4309 62.5729C42.4465 65.812 40.5971 69.3455 38.6881 71.7012C37.2265 73.4385 34.9296 75.647 34.5419 75.6764C34.2137 75.6764 31.4397 70.965 30.3062 68.4621C29.0235 65.547 27.9199 61.8368 27.4426 58.7449C26.9057 55.4764 26.9653 49.2927 27.5619 45.9359C28.0392 43.3152 28.0392 43.1385 27.5321 42.7852C27.2636 42.579 26.9355 42.4024 26.7864 42.4024C26.1898 42.4024 25.6529 44.0219 25.1756 47.261C24.0719 55.1525 25.5634 64.0747 29.2323 71.2301C29.8886 72.5551 30.336 73.6152 30.1869 73.6152C30.0675 73.6152 28.8744 72.7613 27.5321 71.7012C21.268 66.7543 17.0622 60.3939 15.3023 53.2385C14.5267 50.1467 14.5565 41.4012 15.3023 38.2799C16.913 31.7429 20.6118 25.8831 26.9952 19.7289C30.3658 16.4898 29.9482 16.3426 31.1712 21.4957ZM89.8147 20.3767C98.4949 26.3837 104.55 35.9242 106.34 46.3776L106.847 49.2927L105.982 49.8817C102.91 52.0607 99.3003 57.5376 97.5404 62.7201C95.7507 68.0204 93.7223 70.965 91.9027 70.965C89.9639 70.965 88.9199 68.0204 88.2636 60.5117C87.6969 53.8863 86.6827 51.354 84.1174 50.0583C83.4612 49.7344 81.582 49.2633 79.9712 49.0572C75.9145 48.4977 74.8108 47.8499 73.8265 45.5531C73.2299 44.1397 73.2597 42.5201 73.9458 41.0478C75.0793 38.6038 78.5394 37.8677 84.9825 38.6922C89.069 39.2222 90.4113 39.0455 92.0519 37.8382C94.5873 35.9537 94.5873 32.0962 92.0519 30.1822C90.6499 29.1222 89.069 28.975 85.8773 29.5639C82.626 30.1528 80.7169 30.1822 80.2397 29.5933C79.6431 28.8866 80.0905 27.1787 81.3135 25.3531C82.3575 23.7924 86.981 18.8455 87.3986 18.8455C87.5179 18.8455 88.5917 19.5228 89.8147 20.3767Z" fill="#D2AE6D"/>
<path d="M48.2035 42.5495C47.8456 42.9029 47.8157 43.1679 48.0245 43.5801C48.3527 44.169 48.651 44.2868 50.56 44.6107C52.4094 44.9346 53.2148 45.4941 55.1238 47.7909C57.3312 50.441 58.5541 51.295 61.5668 52.2373C65.4446 53.4445 66.2201 54.7991 64.3111 57.0075C63.7145 57.7142 63.0881 58.9215 62.76 59.9521C62.4319 61.0711 61.3879 62.9851 59.7771 65.3996C55.8994 71.1711 54.8852 73.8507 54.8852 78.2381C54.8852 79.5632 54.7659 80.7116 54.6466 80.7999C54.1395 81.0944 52.3497 79.9166 51.3952 78.6798C50.0231 76.9131 49.516 74.9107 49.516 71.5244C49.516 68.9037 49.4563 68.6093 48.8896 68.3148C48.4422 68.0498 48.1737 68.0792 47.8157 68.3442C47.4578 68.6682 47.3981 69.3749 47.4876 72.4373C47.5771 75.853 47.6368 76.2652 48.5018 78.032C49.6651 80.3582 50.8881 81.6833 52.5585 82.4489C54.0798 83.1262 55.4221 83.1851 56.2573 82.5961C56.8241 82.2133 56.9135 81.8011 57.0627 78.562C57.2715 73.7623 57.8084 72.3195 61.4475 66.8425C63.4162 63.8684 64.4901 61.9839 64.7287 60.9533C64.9375 60.0699 65.5043 58.9804 66.1008 58.2737C68.9644 54.8874 67.5923 51.7661 62.581 50.3233C60.1052 49.6166 60.1052 49.6166 56.8241 46.348C54.0798 43.6096 53.3341 43.0501 52.2006 42.7556C49.5458 42.1078 48.7106 42.0784 48.2035 42.5495Z" fill="#D2AE6D"/>
</svg>
