<svg width="112" height="112" viewBox="0 0 112 112" fill="none" xmlns="http://www.w3.org/2000/svg">
<path d="M54.9733 8.58654C54.6933 8.86654 54.6933 19.351 54.9422 20.0354C55.0667 20.3465 55.5022 20.5332 56.0311 20.5332C57.2133 20.5332 57.2756 20.191 57.1822 13.8443L57.0889 8.55543L56.1556 8.46209C55.6267 8.39987 55.0978 8.46209 54.9733 8.58654Z" fill="#D2AE6D"/>
<path d="M33.6621 14.3732C33.4443 14.591 33.2888 15.0265 33.3199 15.3687C33.3199 16.2087 38.2354 24.5776 38.951 25.0132C39.3865 25.2621 39.6354 25.1998 40.1643 24.671L40.8488 24.0176L39.6665 21.871C35.5599 14.3732 34.7199 13.3154 33.6621 14.3732Z" fill="#D2AE6D"/>
<path d="M75.1956 16.8621C74.2622 18.4487 72.9556 20.7198 72.3333 21.871L71.1511 24.0176L71.8356 24.671C72.3645 25.1998 72.6133 25.2621 73.0489 25.0132C73.7645 24.5465 78.68 16.1776 78.7111 15.3687C78.7111 15.0265 78.5556 14.591 78.3378 14.3732C77.4978 13.5332 76.8756 13.9998 75.1956 16.8621Z" fill="#D2AE6D"/>
<path d="M50.2443 25.1065C42.031 26.8488 34.8443 32.4177 31.0488 39.9777C28.311 45.391 27.4399 53.511 28.9643 59.5777C29.431 61.5065 31.0799 64.7732 32.4177 66.4532C32.9777 67.1377 34.3154 68.8177 35.4043 70.1554C38.4843 73.9821 39.9466 77.2488 41.0354 82.8177C41.3466 84.4665 41.7199 85.9599 41.8132 86.1465C41.9688 86.3954 46.0754 86.4888 55.8443 86.4888C67.3866 86.4888 69.7199 86.4265 70.0932 86.0532C70.3421 85.8043 70.6221 84.871 70.7154 83.9377C70.9954 81.6043 72.0221 77.9332 72.9554 75.7865C73.951 73.5154 75.071 71.8977 78.1821 68.1332C82.4443 62.9999 83.6888 59.5465 83.7199 52.8888C83.7199 48.7199 83.4399 46.7599 82.3821 43.5554C79.3643 34.2843 71.2754 27.0665 61.5999 25.0443C58.7999 24.4532 53.1066 24.4843 50.2443 25.1065ZM63.7466 28.2799C67.5732 29.5554 70.4977 31.3288 73.2977 34.0043C78.6488 39.0443 81.1999 45.0488 81.1999 52.4221C81.1999 58.4888 80.1421 61.6621 76.8132 65.7688C73.1732 70.2799 72.1154 71.711 71.2132 73.4843C70.0932 75.6932 68.9732 79.1154 68.4443 81.8843L68.071 83.9999H55.9688H43.8666L43.7421 83.2843C43.6488 82.911 43.431 81.7599 43.2132 80.7332C42.2799 75.7865 40.1332 71.7421 35.8088 66.5777C32.0132 62.0665 30.7999 58.7065 30.7999 52.4843C30.7999 45.0488 33.4443 38.9199 38.8577 33.8488C43.9599 29.0577 49.4977 27.0043 56.7777 27.191C60.3243 27.2843 61.1643 27.4088 63.7466 28.2799Z" fill="#D2AE6D"/>
<path d="M67.3555 35.591C66.8577 35.8087 66.1421 36.3065 65.831 36.6798C65.4888 37.0221 65.0532 37.3332 64.8043 37.3332C63.8399 37.3332 60.3866 38.7021 58.4266 39.8532C57.3066 40.5065 56.1866 41.0665 55.9999 41.0665C55.8132 41.0665 54.6932 40.5065 53.5732 39.8532C50.8666 38.2665 48.0666 37.3332 45.8888 37.3332C39.9466 37.3332 38.8888 42.8398 43.3377 50.5243C44.551 52.6087 44.551 52.7021 44.0532 53.4798C41.751 57.0576 40.2266 61.5998 40.5999 63.7776C41.1599 67.0132 43.7732 68.5376 47.631 67.8221C48.5643 67.6665 50.8355 66.7643 52.7021 65.831L56.0932 64.1198L58.1466 65.3021C60.8221 66.8576 63.4355 67.791 65.6132 68.0087C67.791 68.2265 69.8132 67.2932 70.7466 65.6754C72.0221 63.4665 71.2132 59.1732 68.7243 54.911L67.4799 52.7643L69.1599 49.4665C70.0932 47.6621 70.9643 45.5465 71.0888 44.7998C71.2443 43.9598 71.6799 42.9954 72.2088 42.3732C74.2932 40.0087 73.5777 36.8043 70.7155 35.591C69.471 35.0621 68.5688 35.0621 67.3555 35.591ZM70.6532 38.6398C70.8399 38.9821 70.9021 39.6043 70.8088 40.0087C70.311 41.9998 67.3866 41.4398 67.5732 39.4176C67.7288 37.7687 69.9066 37.2087 70.6532 38.6398ZM50.8043 41.3154C52.2977 41.9998 53.511 42.6532 53.511 42.7465C53.511 42.8398 51.831 44.5821 49.7777 46.6354L46.0443 50.3998L44.7377 47.6621C43.0888 44.2398 42.7466 41.5643 43.8666 40.4443C44.9555 39.3554 47.4132 39.6665 50.8043 41.3154ZM65.4266 41.4087C65.9243 42.4043 66.4843 42.9332 67.4177 43.3998C68.9732 44.1154 68.9732 44.0843 67.1688 47.8176L65.9243 50.3687L62.2221 46.6665C60.1688 44.6132 58.4888 42.871 58.4888 42.7776C58.4888 42.4354 64.3688 39.7287 64.6488 39.9776C64.711 40.0087 65.0532 40.6621 65.4266 41.4087ZM60.231 48.3465C62.3466 50.4621 64.0888 52.3287 64.0888 52.5154C64.0888 53.4176 56.9021 60.6665 55.9999 60.6665C55.1288 60.6665 47.911 53.3554 47.911 52.4843C47.911 52.0487 55.5643 44.4887 55.9999 44.4887C56.2177 44.4887 58.1155 46.231 60.231 48.3465ZM49.9955 58.7998L53.7288 62.5021L51.6443 63.591C49.2177 64.8665 46.231 65.7376 45.0799 65.4887C42.9021 65.0221 42.5599 62.6265 44.0843 58.9554C44.5821 57.7732 46.0443 55.0665 46.1688 55.0665C46.1999 55.0665 47.911 56.7465 49.9955 58.7998ZM66.7021 56.4976C68.9421 60.511 69.3466 63.9332 67.7288 65.1465C66.951 65.7065 66.7332 65.7376 65.0843 65.3954C64.1199 65.2087 62.1599 64.4621 60.7599 63.7776L58.2399 62.5332L61.8488 58.831C63.871 56.8087 65.5821 55.1287 65.7066 55.1287C65.7999 55.0976 66.2666 55.7198 66.7021 56.4976Z" fill="#D2AE6D"/>
<path d="M54.2887 48.813C51.1154 50.2441 50.8665 54.2575 53.791 56.2175C55.1599 57.1508 56.8399 57.1508 58.2087 56.2175C61.1954 54.2264 60.8221 50.0264 57.5554 48.7197C55.9999 48.0975 55.8132 48.0975 54.2887 48.813ZM57.3999 51.7686C58.3332 53.1686 56.9954 54.8175 55.3465 54.2886C53.6354 53.7286 54.1643 51.0219 55.9999 51.0219C56.6221 51.0219 57.0887 51.2708 57.3999 51.7686Z" fill="#D2AE6D"/>
<path d="M17.8267 30.2088C17.1734 30.8622 17.3601 31.64 18.2934 32.2933C18.7601 32.6044 20.9378 33.9111 23.1467 35.1555C27.3778 37.5822 28.0623 37.7066 28.249 36.0266C28.3423 35.3111 27.9378 34.9688 23.8934 32.6355C19.1645 29.8977 18.4178 29.6177 17.8267 30.2088Z" fill="#D2AE6D"/>
<path d="M88.2621 32.5419C84.0621 34.9685 83.6576 35.2796 83.751 36.0263C83.9687 37.7374 84.591 37.613 89.4754 34.7819C92.0265 33.3196 94.2354 31.8885 94.4221 31.6085C94.8265 30.9863 94.2976 30.053 93.4576 29.9285C93.1465 29.8974 90.7821 31.0796 88.2621 32.5419Z" fill="#D2AE6D"/>
<path d="M11.8222 51.9556C11.5733 52.3912 11.5733 52.7645 11.8222 53.2C12.1333 53.7912 12.4755 53.8223 17.8888 53.8223H23.6444L23.8311 53.0445C24.2355 51.4578 23.7688 51.3334 17.7022 51.3334C12.4755 51.3334 12.1333 51.3645 11.8222 51.9556Z" fill="#D2AE6D"/>
<path d="M88.3554 51.8C88.1377 52.0489 88.0443 52.5778 88.1688 53.0445L88.3554 53.8223H94.111C99.4621 53.8223 99.8666 53.7912 100.178 53.2312C100.582 52.4534 100.582 52.3912 99.991 51.8312C99.3066 51.1156 88.9466 51.0845 88.3554 51.8Z" fill="#D2AE6D"/>
<path d="M22.0887 70.7465C18.3243 72.9243 17.5465 73.4843 17.4843 74.1376C17.422 74.6976 17.5776 75.0398 18.0443 75.2887C18.6043 75.5998 19.2576 75.3198 22.6487 73.391C28.1554 70.2798 28.3732 70.0932 28.2487 69.0976C28.0932 67.6354 26.9732 67.9154 22.0887 70.7465Z" fill="#D2AE6D"/>
<path d="M83.9065 68.351C83.7821 68.4444 83.6887 68.8799 83.6887 69.2844C83.6887 70.0622 83.9998 70.311 89.6621 73.5466C92.7421 75.3199 93.3954 75.5688 93.9554 75.2888C94.2976 75.1022 94.5776 74.6355 94.5776 74.1999C94.5776 73.5777 93.8932 73.0488 90.0043 70.8088C85.7421 68.351 84.4354 67.8222 83.9065 68.351Z" fill="#D2AE6D"/>
<path d="M44.3645 90.7198C44.0845 90.9686 43.8667 91.4042 43.8667 91.622C43.8667 91.8398 44.0845 92.2753 44.3645 92.5242C44.7689 92.9598 46.2623 93.022 56 93.022C65.7378 93.022 67.2311 92.9598 67.6356 92.5242C67.9156 92.2753 68.1334 91.8398 68.1334 91.622C68.1334 91.4042 67.9156 90.9686 67.6356 90.7198C67.2311 90.2842 65.7378 90.222 56 90.222C46.2623 90.222 44.7689 90.2842 44.3645 90.7198Z" fill="#D2AE6D"/>
<path d="M46.729 96.1956C46.2312 96.6934 46.2623 97.5334 46.7912 97.9689C47.0712 98.2178 49.809 98.3111 56.1556 98.2489C64.3067 98.1556 65.1467 98.0934 65.4578 97.5956C65.7067 97.2222 65.7067 96.9111 65.4578 96.5067C65.1467 96.04 64.2756 95.9778 56.1245 95.8845C49.3734 95.8222 47.009 95.9156 46.729 96.1956Z" fill="#D2AE6D"/>
<path d="M48.7199 101.609C48.4399 101.858 48.2222 102.293 48.2222 102.511C48.2222 102.729 48.4399 103.164 48.7199 103.413C49.4355 104.16 62.5644 104.16 63.2799 103.413C63.5599 103.164 63.7777 102.729 63.7777 102.511C63.7777 102.293 63.5599 101.858 63.2799 101.609C62.5644 100.862 49.4355 100.862 48.7199 101.609Z" fill="#D2AE6D"/>
</svg>
