<svg width="126" height="126" viewBox="0 0 126 126" fill="none" xmlns="http://www.w3.org/2000/svg">
<g clip-path="url(#clip0_1_326)">
<path d="M58.0781 0.147652C39.9164 1.79648 23.4774 10.8527 12.6985 25.1016C9.22854 29.7035 5.85706 35.9297 3.81448 41.4422C2.58401 44.8137 1.13206 50.6707 0.56604 54.5098C-0.0491943 58.841 -0.0491943 67.5773 0.56604 71.6133C2.65784 85.2715 8.61331 97.3547 17.9403 106.879C23.1574 112.219 28.1531 115.91 34.4039 119.06C50.0801 127.009 68.291 128.141 84.5824 122.161C90.2672 120.094 97.4531 116.058 102.203 112.293C104.762 110.275 109.758 105.304 111.85 102.744C123.982 87.8309 128.609 68.0695 124.425 49.2187C123.441 44.8629 123.047 43.7555 122.136 42.8449C121.373 42.082 121.226 42.0328 119.971 42.1312C118.42 42.2543 117.559 42.8941 117.141 44.1738C116.919 44.8383 117.018 45.5273 117.731 48.3082C119.06 53.4516 119.602 57.6598 119.602 63C119.577 71.9332 117.928 79.4391 114.188 87.2895C109.93 96.2473 103.409 103.975 95.3613 109.561C85.7883 116.23 74.8617 119.651 63.1231 119.651C58.3488 119.651 56.134 119.454 51.8028 118.593C34.6008 115.147 19.7121 103.704 12.0832 88.0031C6.66916 76.8551 4.99573 64.698 7.25979 52.6641C8.95784 43.4848 13.0184 34.65 18.8262 27.4641C20.7949 25.0031 25.1262 20.6473 27.4149 18.8016C32.1153 15.0117 39.2028 11.1726 44.9613 9.27773C51.852 7.01366 57.1184 6.27538 64.6735 6.47226C69.9645 6.59531 73.336 7.08749 78.2086 8.39179C80.5957 9.03163 81.1125 9.10546 81.8262 8.85937C83.1551 8.4164 83.918 7.33359 83.918 5.85703C83.918 4.79882 83.8195 4.52811 83.1059 3.81445C82.5891 3.29765 81.8016 2.87929 80.8418 2.58398C78.4547 1.89491 74.3203 1.00898 71.5641 0.590614C69.1278 0.246086 60.3668 -0.0492249 58.0781 0.147652Z" fill="#2D6B5E"/>
<path d="M101.981 7.11213C101.464 7.50588 96.8625 12.0094 91.7437 17.1281C83.9426 24.9785 82.4414 26.6028 82.2199 27.4395C82.0722 28.0055 81.9492 30.7371 81.9492 33.961V39.4735L71.1457 50.3262C61.6957 59.7762 60.3176 61.2774 60.1699 62.0649C59.9238 63.3199 60.1699 64.1567 61.0066 64.9934C61.8433 65.8301 62.6801 66.0762 63.9351 65.8301C64.7226 65.6824 66.1992 64.3043 75.6738 54.8543L86.5265 44.0508H92.039C95.2629 44.0508 97.9945 43.9278 98.5605 43.7801C99.3972 43.5586 101.021 42.0574 108.872 34.2563C113.991 29.1375 118.494 24.5356 118.888 24.0188C119.7 22.9114 119.823 21.5824 119.232 20.4258C118.593 19.1707 118.174 19.0723 112.465 18.9492L107.174 18.8262L107.051 13.5352C106.928 7.8258 106.829 7.40744 105.574 6.7676C104.418 6.17698 103.089 6.30002 101.981 7.11213ZM101.341 23.5758C102.03 24.7817 102.99 25.1016 106.066 25.1016H108.896L102.621 31.377L96.3457 37.6524H92.359H88.3476V33.6656V29.6543L94.5738 23.4281L100.775 17.2266L100.898 20.1059C100.972 21.8285 101.145 23.2313 101.341 23.5758Z" fill="#2D6B5E"/>
<path d="M59.7024 37.923C51.7044 39.1535 44.5922 44.1738 40.9993 51.1629C34.8469 63.1476 39.0551 77.7902 50.5477 84.4347C54.8544 86.9203 59.1364 87.9785 64.1075 87.7816C68.168 87.6093 70.6536 86.9941 74.1973 85.2715C82.4415 81.2601 88.0278 72.7945 88.1754 64.0582C88.2247 61.5972 88.2001 61.548 87.511 60.8097C85.7145 58.9148 82.8844 59.5793 82.1954 62.0402C82.0477 62.5078 81.9493 63.4429 81.9493 64.132C81.9493 65.8547 81.1372 68.9308 80.1036 71.0226C77.7165 75.8953 73.1883 79.6113 67.9958 80.9894C65.7071 81.6047 61.6465 81.7277 59.4317 81.2355C52.3934 79.7097 46.8563 74.4433 44.986 67.4789C44.2969 64.8703 44.2969 60.6621 44.986 58.0535C46.7579 51.409 52.0243 46.2164 58.6688 44.5429C59.7516 44.2722 61.179 44.0508 61.868 44.0508C64.3536 44.0508 65.7071 43.2879 66.1747 41.639C66.4946 40.5808 66.1254 39.375 65.2149 38.5136C64.5504 37.8738 64.2551 37.7754 62.8032 37.7508C61.8926 37.7015 60.4899 37.8 59.7024 37.923Z" fill="#2D6B5E"/>
</g>
<defs>
<clipPath id="clip0_1_326">
<rect width="126" height="126" fill="white"/>
</clipPath>
</defs>
</svg>
