<svg width="111" height="111" viewBox="0 0 111 111" fill="none" xmlns="http://www.w3.org/2000/svg">
<path d="M56.5874 42.6252C56.1432 42.9308 55.7108 43.2478 55.2833 43.5762C55.1368 43.4848 54.9904 43.3935 54.8395 43.2993C54.5494 43.1211 54.5494 43.1211 54.2535 42.9394C54.0623 42.8212 53.8712 42.703 53.6742 42.5812C52.3629 41.8639 50.9096 41.878 49.4695 42.1916C47.677 42.7575 46.5607 43.7607 45.5274 45.3106C45.4559 45.4537 45.3843 45.5968 45.3106 45.7442C45.1228 45.6369 44.935 45.5296 44.7415 45.419C43.3407 44.824 41.6264 44.8597 40.1735 45.2513C39.1409 45.6819 38.3054 46.266 37.5059 47.045C37.5059 47.1881 37.5059 47.3312 37.5059 47.4786C37.4003 47.416 37.2946 47.3534 37.1858 47.2889C35.5559 46.4354 33.771 46.2762 31.9852 46.7545C30.4652 47.4284 29.431 48.7787 28.834 50.2969C28.7345 51.2153 28.7408 52.1303 28.743 53.0534C28.7412 53.3314 28.7393 53.6095 28.7374 53.896C28.7326 54.6589 28.732 55.4217 28.7324 56.1846C28.7324 56.8282 28.7306 57.4719 28.7288 58.1156C28.7246 59.6441 28.724 61.1725 28.7254 62.701C28.7267 64.084 28.7237 65.4669 28.7165 66.8498C28.6803 73.9837 28.6543 81.0157 29.8004 88.0792C30.0766 89.9761 30.1594 91.8926 30.1806 93.8079C30.1866 94.131 30.1928 94.4541 30.1992 94.7771C30.2082 95.2719 30.2162 95.7666 30.2218 96.2614C30.2278 96.749 30.2377 97.2363 30.2483 97.7238C30.2526 98.0099 30.2569 98.296 30.2613 98.5907C30.3516 99.293 30.3516 99.293 30.6075 99.6569C31.1539 100.054 31.5296 100.026 32.202 100.027C32.5763 100.031 32.5763 100.031 32.9582 100.034C33.2322 100.033 33.5062 100.032 33.7886 100.031C34.0799 100.032 34.3712 100.034 34.6625 100.036C35.454 100.039 36.2454 100.039 37.0369 100.038C37.6975 100.037 38.358 100.039 39.0185 100.04C40.5767 100.043 42.1349 100.043 43.6931 100.04C45.3011 100.038 46.909 100.041 48.517 100.046C49.8972 100.051 51.2773 100.053 52.6574 100.051C53.4819 100.051 54.3064 100.051 55.1308 100.055C55.9062 100.058 56.6814 100.057 57.4567 100.053C57.877 100.052 58.2973 100.055 58.7176 100.059C58.9678 100.056 59.218 100.054 59.4757 100.052C59.6931 100.052 59.9105 100.052 60.1344 100.052C60.8589 99.9137 61.1183 99.6472 61.5704 99.0762C61.6479 98.5954 61.6479 98.5954 61.6061 98.0653C61.5938 97.865 61.5815 97.6646 61.5689 97.4582C61.5526 97.2421 61.5363 97.026 61.5196 96.8033C61.0004 91.0645 61.0004 91.0645 63.2393 86.0494C64.1999 85.0846 65.2778 84.2659 66.388 83.4823C67.0842 82.9632 67.6025 82.398 68.1491 81.7288C68.8259 80.9178 69.5977 80.1956 70.3506 79.4561C71.4018 78.4237 72.4207 77.3823 73.379 76.2624C73.7016 75.8899 74.0359 75.5319 74.3749 75.1744C76.262 72.9543 77.0062 70.2049 77.0578 67.3561C77.0627 67.1945 77.0675 67.0328 77.0725 66.8662C77.0603 63.8631 75.6931 61.1785 74.3776 58.5554C74.103 58.0048 73.8364 57.4507 73.57 56.8961C72.3135 54.3361 71.1698 52.9634 68.5541 51.748C67.1021 51.0855 67.1021 51.0855 66.1631 49.8706C65.9877 48.9218 66.0452 47.9803 66.1082 47.022C66.1581 45.6498 65.524 44.6471 64.6868 43.6169C62.5564 41.4172 59.2384 41.0819 56.5874 42.6252ZM62.004 45.5274C63.277 46.9874 63.1548 48.7869 63.0786 50.6408C62.9791 51.518 62.9097 51.7674 62.3317 52.4734C61.5903 52.9191 60.858 53.2346 60.0528 53.5489C59.5571 53.8204 59.0837 54.1177 58.603 54.4161C57.8569 54.9057 57.8569 54.9057 57.0176 55.0665C57.0069 54.0445 56.999 53.0226 56.9938 52.0006C56.9916 51.6534 56.9887 51.3063 56.9849 50.9591C56.9796 50.4581 56.9772 49.9571 56.9753 49.456C56.9731 49.3026 56.9708 49.1492 56.9685 48.9911C56.9682 47.6539 57.1016 46.57 58.0068 45.5545C59.2507 44.636 60.7581 44.6292 62.004 45.5274ZM53.3321 46.1778C54.3532 47.7816 54.1936 49.6937 54.234 51.5331C54.2469 51.9724 54.2677 52.4115 54.2962 52.85C54.4538 54.9721 54.4538 54.9721 53.9825 57.0176C53.1969 57.8694 52.21 58.2948 51.1571 58.7327C50.4467 59.0413 50.1606 59.2829 49.8551 59.9992C49.7519 60.3477 49.7519 60.3477 49.6465 60.7032C49.1293 60.4972 48.8394 60.3729 48.5552 59.8836C48.1294 58.5553 48.0369 57.3422 48.0502 55.9523C48.0501 55.7325 48.05 55.5127 48.0499 55.2862C48.0504 54.8245 48.0525 54.3628 48.0561 53.9012C48.0612 53.1971 48.0605 52.4932 48.0591 51.7891C48.0603 51.3386 48.0618 50.888 48.0638 50.4375C48.0636 50.2286 48.0634 50.0197 48.0632 49.8044C48.0783 48.3525 48.1167 47.1372 49.091 45.9881C49.8898 45.3257 50.5548 45.2335 51.5842 45.2505C52.3403 45.3522 52.7693 45.6805 53.3321 46.1778ZM44.0098 48.7794C45.0864 49.9126 45.13 50.878 45.1378 52.3811C45.1391 52.5647 45.1403 52.7484 45.1416 52.9376C45.1436 53.3263 45.1451 53.715 45.1459 54.1037C45.148 54.6961 45.1547 55.2884 45.1616 55.8807C45.163 56.2588 45.1641 56.637 45.1649 57.0151C45.1676 57.1913 45.1703 57.3675 45.1731 57.549C45.1679 58.8723 44.9046 59.7821 43.9692 60.7709C43.1839 61.2421 42.5418 61.4266 41.6251 61.3536C40.8466 61.0905 40.2696 60.6845 39.745 60.0434C39.3336 59.1275 39.3598 58.2966 39.3631 57.303C39.3614 56.9996 39.3614 56.9996 39.3596 56.69C39.3583 56.2631 39.3585 55.8361 39.3604 55.4092C39.3622 54.7577 39.356 54.1067 39.3491 53.4553C39.3488 53.0396 39.3489 52.624 39.3495 52.2083C39.3471 52.0145 39.3447 51.8207 39.3422 51.621C39.3558 50.3928 39.5254 49.7246 40.3243 48.7794C41.6236 47.8908 42.6667 48.096 44.0098 48.7794ZM35.5547 50.2969C36.2862 51.2292 36.3003 52.1103 36.2915 53.2508C36.2921 53.4295 36.2928 53.6083 36.2934 53.7925C36.2938 54.1693 36.2926 54.5461 36.2899 54.9229C36.2864 55.4982 36.2899 56.0731 36.2941 56.6484C36.2936 57.0154 36.2928 57.3824 36.2915 57.7493C36.2928 57.9205 36.2941 58.0917 36.2955 58.2681C36.2829 59.2639 36.1717 59.9115 35.5547 60.7032C34.9367 61.2043 34.6195 61.3536 33.8204 61.3536C33.0061 61.0822 32.6315 60.7074 32.086 60.0528C31.8197 59.2538 31.8299 58.5098 31.8252 57.6773C31.8233 57.4235 31.8233 57.4235 31.8214 57.1645C31.8194 56.8064 31.818 56.4484 31.8171 56.0903C31.815 55.545 31.8083 54.9999 31.8014 54.4546C31.8 54.1061 31.7989 53.7576 31.7981 53.4092C31.7954 53.2472 31.7927 53.0852 31.7899 52.9184C31.7943 51.8818 31.9673 51.1753 32.5196 50.2969C33.6214 49.4494 34.4471 49.4733 35.5547 50.2969ZM68.4367 55.1012C70.4782 56.6706 71.4233 59.6989 72.4102 62.004C72.5661 62.347 72.7226 62.6898 72.8802 63.0321C74.0085 65.5542 74.2311 67.9134 73.3172 70.5327C72.5249 72.472 71.229 73.8582 69.735 75.2963C69.283 75.7529 68.8642 76.2126 68.446 76.6987C67.6088 77.6655 66.7099 78.5604 65.7979 79.4561C64.7632 80.4723 63.7695 81.5001 62.8238 82.5997C61.987 83.539 61.0683 84.4018 60.1658 85.2775C60.0176 85.4233 59.8693 85.5692 59.7166 85.7195C59.5832 85.8493 59.4498 85.979 59.3124 86.1127C56.8841 88.8646 58.3745 94.4426 58.3184 96.9083C50.091 96.9083 41.8635 96.9083 33.3868 96.9083C33.3152 94.4043 33.2437 91.9003 33.17 89.3204C33.017 87.8089 32.8545 86.3205 32.628 84.8218C32.5532 84.3033 32.4796 83.7847 32.4071 83.2659C32.3631 82.9531 32.3177 82.6405 32.2703 82.3282C31.8843 79.6697 31.8374 76.9897 31.848 74.308C31.8484 74.0065 31.8487 73.7049 31.849 73.4033C31.8498 72.6218 31.8519 71.8402 31.8543 71.0586C31.8566 70.2562 31.8575 69.4538 31.8586 68.6514C31.8609 67.086 31.8646 65.5206 31.8692 63.9551C31.9991 63.9898 32.129 64.0246 32.2628 64.0603C33.8439 64.433 35.5212 64.3804 36.9241 63.5368C37.1885 63.3687 37.4517 63.1988 37.7142 63.0278C38.1596 62.8139 38.1596 62.8139 38.5975 63.0583C38.7426 63.162 38.8876 63.2657 39.037 63.3725C40.5007 64.3979 42.0652 64.3319 43.793 64.1719C44.5858 63.9016 45.2544 63.5321 45.961 63.088C46.2486 62.9405 46.5372 62.7949 46.8282 62.6544C46.9489 62.7432 47.0696 62.8321 47.194 62.9237C48.296 63.7018 49.1856 64.1472 50.5137 64.3887C50.279 64.5765 50.279 64.5765 50.0395 64.7681C49.6385 65.0889 49.2409 65.4141 48.8471 65.7437C48.3929 66.1667 48.3929 66.1667 47.9122 66.1231C47.8538 66.2469 47.7953 66.3707 47.7352 66.4983C47.4707 67.0053 47.1689 67.4565 46.8417 67.9252C45.838 69.4162 45.2962 70.8172 45.2688 72.6309C45.2653 72.8414 45.2618 73.0519 45.2582 73.2688C45.2486 74.2218 45.2397 75.1747 45.2347 76.1277C45.2311 76.6311 45.2252 77.1345 45.2169 77.6379C45.2051 78.3643 45.2003 79.0904 45.1971 79.8169C45.1898 80.1553 45.1898 80.1553 45.1822 80.5005C45.1868 82.0337 45.1868 82.0337 45.7648 82.6516C46.5472 82.8564 47.1273 82.769 47.9122 82.5997C47.9186 82.1833 47.9186 82.1833 47.9252 81.7584C47.9418 80.72 47.961 79.6816 47.981 78.6432C47.9892 78.1954 47.9968 77.7475 48.0036 77.2997C48.0136 76.6527 48.0262 76.0059 48.0392 75.359C48.0417 75.1615 48.0442 74.9641 48.0468 74.7606C48.0941 72.6645 48.3323 70.8451 49.6465 69.1583C49.7511 69.0241 49.8556 68.89 49.9633 68.7518C50.9807 67.6003 52.2812 66.9322 53.7657 66.5567C54.6342 66.6276 55.3437 66.8574 56.1369 67.2071C58.5206 68.1905 60.8901 67.9922 63.3047 67.2071C64.807 66.4798 66.2346 65.2498 66.9903 63.7383C67.0865 62.6074 67.0865 62.6074 66.7599 62.0311C66.0199 61.6014 65.669 61.6096 64.8223 61.7872C64.3659 62.2419 64.3659 62.2419 63.8874 62.817C62.7889 64.1292 61.8103 64.6546 60.1273 64.9096C58.2638 65.0193 56.5784 64.4421 55.1342 63.2624C54.3777 62.5277 53.7873 61.872 53.3321 60.92C54.794 60.0748 56.2565 59.2307 57.7198 58.3879C58.4194 57.9849 59.1188 57.5814 59.8176 57.1771C60.5114 56.7756 61.2058 56.3751 61.9006 55.9753C62.1675 55.8215 62.4341 55.6674 62.7005 55.5128C63.0747 55.2959 63.4497 55.0804 63.8247 54.8649C64.1456 54.6797 64.1456 54.6797 64.4729 54.4907C65.9858 53.712 67.07 54.2424 68.4367 55.1012Z" fill="#D2AE6D"/>
<path d="M85.6348 24.4983C85.1038 24.9666 85.1038 24.9666 84.6185 25.5958C84.5281 25.7109 84.4376 25.826 84.3444 25.9446C84.0469 26.3262 83.7564 26.7123 83.4668 27.0998C83.2633 27.3689 83.0598 27.6379 82.8562 27.9069C82.4223 28.4828 81.9913 29.0608 81.5614 29.6396C80.8277 30.6236 80.0757 31.5928 79.3206 32.5604C79.1921 32.725 79.0637 32.8895 78.9314 33.0591C78.6807 33.3803 78.43 33.7015 78.1792 34.0227C77.3345 35.1072 76.499 36.1988 75.6621 37.2893C75.3917 37.641 75.1213 37.9926 74.8508 38.3441C74.6702 38.5788 74.4897 38.8135 74.3093 39.0482C73.845 39.6521 73.3801 40.2554 72.914 40.858C72.5427 41.3381 72.1729 41.8194 71.8046 42.3019C71.5233 42.6689 71.2393 43.034 70.9493 43.3943C70.4907 43.9821 70.2504 44.3915 70.1338 45.1346C70.2566 45.8253 70.3794 46.1338 70.8926 46.6116C71.4075 46.8148 71.4075 46.8148 71.9766 46.8284C72.8764 46.3851 73.42 45.8258 74.0497 45.0533C74.1883 44.8836 74.1883 44.8836 74.3298 44.7105C75.1818 43.6569 75.9928 42.5726 76.8007 41.4851C77.6441 40.3504 78.5049 39.2304 79.3748 38.1158C79.5032 37.9513 79.6316 37.7867 79.7639 37.6172C80.0146 37.296 80.2654 36.9747 80.5161 36.6535C81.3608 35.5691 82.1963 34.4774 83.0332 33.387C83.3036 33.0353 83.5741 32.6837 83.8446 32.3321C84.025 32.0976 84.2053 31.8631 84.3855 31.6286C84.852 31.0216 85.3196 30.4155 85.7889 29.8107C85.8856 29.6857 85.9823 29.5608 86.0819 29.4321C86.3498 29.0861 86.6181 28.7404 86.8864 28.3947C88.2363 26.5925 88.2363 26.5925 88.2363 25.65C88.0195 24.9319 88.0195 24.9319 87.6672 24.4983C86.9118 24.1802 86.4243 24.3079 85.6348 24.4983Z" fill="#D2AE6D"/>
<path d="M70.2423 12.5742C69.6475 12.9127 69.4116 13.1394 69.1401 13.7736C69.0806 13.9938 69.021 14.2139 68.9597 14.4407C68.8899 14.6923 68.8202 14.9439 68.7483 15.2031C68.6757 15.4778 68.603 15.7524 68.5282 16.0354C68.4492 16.3247 68.37 16.6139 68.2905 16.9031C68.078 17.6789 67.8694 18.4557 67.6616 19.2328C67.4462 20.036 67.2275 20.8383 67.009 21.6406C66.7024 22.768 66.397 23.8956 66.093 25.0236C65.6165 26.7916 65.1306 28.5568 64.6377 30.3203C64.4572 30.9692 64.2768 31.6181 64.0965 32.2671C63.985 32.6676 63.8729 33.0679 63.7602 33.4681C63.606 34.0169 63.4542 34.5664 63.3031 35.116C63.2585 35.2721 63.214 35.4282 63.1682 35.589C62.8655 36.7031 62.6384 37.8057 63.088 38.9015C63.6732 39.3587 64.1102 39.3356 64.8359 39.3343C65.3893 39.2104 65.5475 39.0285 65.9063 38.5899C66.1152 38.0409 66.1152 38.0409 66.2971 37.3738C66.3669 37.1222 66.4366 36.8706 66.5085 36.6114C66.5823 36.3367 66.656 36.0621 66.732 35.7791C66.8114 35.4898 66.8909 35.2006 66.9707 34.9114C67.1841 34.1354 67.3948 33.3586 67.6049 32.5817C67.8225 31.7787 68.0422 30.9763 68.2618 30.1739C68.5263 29.2063 68.7905 28.2388 69.0534 27.2708C69.5771 25.3434 70.1073 23.4179 70.6445 21.4942C70.8249 20.8454 71.0051 20.1964 71.1851 19.5474C71.2965 19.1469 71.4085 18.7466 71.5211 18.3464C71.6753 17.7976 71.8271 17.2481 71.9783 16.6985C72.0228 16.5424 72.0674 16.3863 72.1132 16.2255C72.3711 15.2764 72.4807 14.4237 72.4102 13.4414C71.8137 12.5466 71.2878 12.4218 70.2423 12.5742Z" fill="#D2AE6D"/>
<path d="M51.8146 11.0567C51.3585 11.3911 51.1987 11.6379 50.9474 12.1407C50.9341 12.5269 50.9341 12.5269 50.9546 13.0097C50.9661 13.2908 50.9661 13.2908 50.9778 13.5775C50.9879 13.7881 50.998 13.9986 51.0083 14.2155C51.0185 14.4412 51.0287 14.667 51.0391 14.8995C51.2082 18.4734 51.4429 22.044 51.6689 25.6146C51.7189 26.4081 51.7683 27.2016 51.8176 27.995C51.8656 28.7669 51.9141 29.5388 51.9627 30.3107C51.9856 30.6756 52.0084 31.0405 52.0311 31.4054C52.0993 32.4998 52.1723 33.5937 52.2482 34.6876C52.2617 34.9146 52.2752 35.1416 52.2891 35.3754C52.3031 35.5671 52.3171 35.7588 52.3316 35.9563C52.3419 36.1129 52.3522 36.2696 52.3628 36.431C52.4958 36.9838 52.7381 37.302 53.1153 37.7227C53.7635 37.9615 54.1121 37.9618 54.782 37.7905C55.3797 37.4512 55.4809 37.2754 55.7169 36.6387C55.7405 36.0404 55.7405 36.0404 55.6968 35.3418C55.6739 34.9459 55.6739 34.9459 55.6504 34.5421C55.6311 34.2521 55.6118 33.9621 55.5924 33.6722C55.5739 33.3692 55.5556 33.0662 55.5376 32.7632C55.4885 31.951 55.4363 31.1389 55.3836 30.3269C55.3295 29.4884 55.2778 28.6497 55.2258 27.811C55.1424 26.4698 55.0572 25.1287 54.9707 23.7877C54.8787 22.3593 54.7903 20.9306 54.7044 19.5018C54.6496 18.5924 54.5932 17.683 54.5361 16.7737C54.5104 16.3607 54.4853 15.9476 54.4607 15.5345C54.4268 14.9699 54.3905 14.4055 54.3535 13.8412C54.3442 13.679 54.335 13.5169 54.3255 13.3499C54.2718 12.5711 54.2148 11.9268 53.7657 11.2735C53.1045 10.9429 52.5425 11.0056 51.8146 11.0567Z" fill="#D2AE6D"/>
<path d="M33.6036 15.8261C33.0887 16.1649 33.0887 16.1649 32.7364 16.6933C32.6273 17.8826 32.8812 18.7261 33.4038 19.7734C33.4736 19.9194 33.5435 20.0655 33.6155 20.2159C33.8438 20.6916 34.076 21.1652 34.3082 21.639C34.4689 21.9725 34.6292 22.3062 34.7892 22.6401C35.1107 23.3104 35.4333 23.9801 35.7568 24.6494C36.3543 25.8886 36.9319 27.1366 37.506 28.3868C37.6061 28.6035 37.7062 28.8202 37.8093 29.0434C38.3717 30.2628 38.9274 31.4848 39.4777 32.7097C39.7937 33.4125 40.111 34.1147 40.4283 34.8168C40.5839 35.1622 40.7389 35.5079 40.893 35.854C41.1086 36.3376 41.3264 36.8202 41.5447 37.3026C41.641 37.5213 41.641 37.5213 41.7394 37.7445C42.0702 38.4695 42.2458 38.7868 42.9259 39.2402C43.7632 39.3315 44.2557 39.3529 44.9855 38.915C45.4496 38.1415 45.2818 37.4827 45.0939 36.6386C44.8905 36.0569 44.6312 35.5121 44.3579 34.9602C44.2835 34.8047 44.2091 34.6493 44.1324 34.4891C43.8905 33.985 43.6453 33.4827 43.4001 32.9802C43.2307 32.6282 43.0615 32.276 42.8926 31.9237C42.6381 31.3928 42.3833 30.862 42.1277 30.3316C41.4202 28.8639 40.7323 27.3882 40.0533 25.9072C39.8493 25.4637 39.6452 25.0202 39.441 24.5768C39.3395 24.3559 39.2379 24.135 39.1333 23.9074C38.5779 22.6995 38.0219 21.4919 37.4639 20.2852C37.2805 19.8881 37.0978 19.4907 36.9151 19.0933C36.8035 18.8522 36.6919 18.611 36.577 18.3625C36.4788 18.1497 36.3807 17.937 36.2797 17.7178C35.2652 15.66 35.2652 15.66 33.6036 15.8261Z" fill="#D2AE6D"/>
<path d="M93.2227 39.2405C92.64 39.583 92.1004 39.9788 91.556 40.3787C91.3949 40.4948 91.2337 40.611 91.0677 40.7306C90.7273 40.9763 90.3874 41.2228 90.0481 41.4701C89.5577 41.8271 89.0655 42.1814 88.5725 42.5348C86.7249 43.8609 84.8909 45.205 83.0624 46.5572C81.6856 47.5741 80.2991 48.5771 78.9056 49.5709C76.3761 51.3848 76.3761 51.3848 76.0822 52.3702C76.0957 53.1155 76.0957 53.1155 76.326 53.6304C76.9188 54.1275 77.2723 54.1995 78.0469 54.1995C79.284 53.5725 80.3681 52.7674 81.475 51.9366C81.8418 51.6638 82.2088 51.3911 82.5759 51.1186C82.7608 50.9811 82.9456 50.8437 83.1361 50.7021C83.9687 50.0862 84.8079 49.4797 85.6483 48.8744C85.8079 48.7593 85.9676 48.6442 86.132 48.5256C86.7809 48.0579 87.4302 47.5907 88.0798 47.1239C89.8712 45.8366 91.6581 44.5438 93.4259 43.2241C93.5708 43.1164 93.7158 43.0086 93.8651 42.8976C93.9994 42.7969 94.1336 42.6961 94.2719 42.5924C94.4475 42.4609 94.4475 42.4609 94.6267 42.3268C95.5899 41.5455 95.5899 41.5455 95.6887 40.7716C95.5995 40.0426 95.4714 39.7549 94.957 39.2405C94.1997 38.988 93.9763 39.0002 93.2227 39.2405Z" fill="#D2AE6D"/>
<path d="M19.2948 25.7987C18.6569 26.2352 18.4659 26.5128 18.2786 27.2621C18.703 29.2685 21.3535 31.1409 22.7813 32.566C23.0552 32.84 23.3291 33.1141 23.6029 33.3882C24.1734 33.959 24.7443 34.5295 25.3155 35.0997C26.0484 35.8313 26.7804 36.564 27.512 37.2969C28.0757 37.8614 28.6399 38.4254 29.2042 38.9891C29.4745 39.2593 29.7447 39.5296 30.0146 39.8C30.3903 40.1762 30.7666 40.5517 31.1431 40.927C31.2547 41.0391 31.3663 41.1511 31.4813 41.2666C32.4666 42.246 32.4666 42.246 33.3595 42.343C34.037 42.2753 34.037 42.2753 34.5519 41.923C34.9042 41.4081 34.9042 41.4081 35.0532 40.8119C34.6288 38.8056 31.9783 36.9332 30.5505 35.508C30.2766 35.234 30.0027 34.9599 29.7289 34.6858C29.1584 34.115 28.5875 33.5445 28.0163 32.9744C27.2834 32.2427 26.5514 31.51 25.8198 30.7771C25.2561 30.2126 24.6919 29.6487 24.1275 29.0849C23.8573 28.8148 23.5871 28.5445 23.3172 28.274C22.9415 27.8978 22.5652 27.5223 22.1887 27.147C22.0771 27.0349 21.9655 26.9229 21.8505 26.8075C20.9828 25.9449 20.5407 25.6741 19.2948 25.7987Z" fill="#D2AE6D"/>
<path d="M17.3684 12.2843C16.2615 12.984 15.5839 13.9421 15.1758 15.1755C14.9362 16.8047 15.1121 18.1145 16.0523 19.4818C17.098 20.6235 18.3354 21.081 19.8641 21.151C21.4005 21.0687 22.4566 20.5591 23.4954 19.4302C24.298 18.4029 24.6063 17.4058 24.5658 16.0893C24.3942 14.8724 23.9608 13.6444 23.0347 12.8043C21.1591 11.614 19.4128 11.2886 17.3684 12.2843ZM20.8939 15.2975C21.3157 15.8272 21.3157 15.8272 21.2597 16.5983C21.0926 17.361 21.0926 17.361 20.5416 17.7907C19.9571 18.0447 19.9571 18.0447 19.3763 17.8855C18.7388 17.4829 18.4883 17.1778 18.211 16.4763C18.4053 15.641 18.569 15.4427 19.295 14.9587C20.0059 14.8494 20.2883 14.8991 20.8939 15.2975Z" fill="#D2AE6D"/>
<path d="M20.6499 59.5381C19.8439 59.541 19.7449 59.6057 19.0781 60.1614C18.935 60.3402 18.792 60.5191 18.6445 60.7034C17.9974 60.4143 17.9974 60.4143 17.5063 59.9175C16.9571 59.4859 16.4815 59.5279 15.7991 59.5593C15.3926 59.6194 15.3926 59.6194 14.959 59.8497C14.6031 60.5392 14.6387 61.0242 14.7422 61.7874C15.0594 62.2919 15.4059 62.6573 15.8262 63.0881C15.6016 63.5718 15.3914 63.9567 15.0403 64.3618C14.6306 64.995 14.6342 65.383 14.7422 66.1233C15.0809 66.6382 15.0809 66.6382 15.6094 66.9905C16.3546 67.1124 16.3546 67.1124 17.127 66.9905C17.7638 66.4485 17.7638 66.4485 18.2109 65.9065C18.6937 66.1306 19.0725 66.335 19.4711 66.6924C20.1579 67.1241 20.6692 67.0771 21.4629 66.9905C21.988 66.6579 22.0888 66.4064 22.303 65.8252C22.3386 65.0778 22.1186 64.7678 21.6797 64.1721C21.3138 63.7792 21.3138 63.7792 21.0293 63.5217C21.2426 63.0459 21.415 62.6986 21.8016 62.3429C22.2337 61.8733 22.2999 61.5547 22.3301 60.9202C21.6911 59.6422 21.6911 59.6422 20.6499 59.5381Z" fill="#D2AE6D"/>
<path d="M84.1579 72.0171C83.4669 72.1932 83.4669 72.1932 82.9249 72.6539C82.5997 73.2772 82.5997 73.2772 82.559 73.887C82.9367 74.9008 83.5854 75.5458 84.334 76.3124C84.5054 76.4896 84.6767 76.6667 84.8532 76.8493C86.4312 78.4553 86.4312 78.4553 87.3421 78.5345C88.0196 78.4803 88.0196 78.4803 88.5345 78.2635C88.9712 77.726 89.0747 77.2868 89.0392 76.5961C88.6991 75.4793 87.7555 74.7164 86.9356 73.9276C86.7671 73.7549 86.5986 73.5822 86.425 73.4043C85.671 72.6697 85.202 72.2396 84.1579 72.0171Z" fill="#D2AE6D"/>
<path d="M91.529 79.4019C90.7221 79.5917 90.4264 79.7391 89.9708 80.4316C89.8217 81.0278 89.8217 81.0278 89.9708 81.7324C90.407 82.3791 90.9424 82.9121 91.4883 83.4668C91.6633 83.6599 91.8382 83.853 92.0185 84.052C92.2012 84.2479 92.384 84.4438 92.5723 84.6456C92.7422 84.8287 92.9122 85.0117 93.0872 85.2003C93.7953 85.7409 94.2912 85.8199 95.1739 85.8516C95.8107 85.5264 95.8107 85.5264 96.2579 84.9844C96.4476 84.3069 96.4476 84.3069 96.2579 83.4668C95.6849 82.6631 95.0119 81.9869 94.3067 81.2988C94.1382 81.1258 93.9697 80.9529 93.796 80.7746C93.0394 80.0388 92.5804 79.6087 91.529 79.4019Z" fill="#D2AE6D"/>
<path d="M86.0684 79.9981C85.3668 80.5221 84.7604 81.1253 84.1443 81.746C83.9744 81.9063 83.8045 82.0666 83.6295 82.2317C82.2741 83.5811 82.2741 83.5811 82.2567 84.6457C82.3829 85.418 82.3829 85.418 82.6403 85.8381C83.1583 86.1417 83.5138 86.2565 84.1172 86.2852C85.2129 85.7629 86.0268 84.9045 86.8814 84.063C87.0298 83.9236 87.1782 83.7841 87.3311 83.6405C88.0407 82.9421 88.4133 82.5313 88.6768 81.5512C88.67 80.8653 88.67 80.8653 88.399 80.3504C87.6458 79.651 87.0009 79.7028 86.0684 79.9981Z" fill="#D2AE6D"/>
<path d="M94.7945 72.0444C93.7054 72.2748 93.1333 72.9456 92.3556 73.7111C92.1625 73.886 91.9694 74.0609 91.7704 74.2412C91.5745 74.424 91.3786 74.6067 91.1767 74.795C90.9937 74.965 90.8106 75.1349 90.6221 75.3099C90.0814 76.0182 90.0015 76.5136 89.9708 77.3966C90.3096 78.0334 90.3096 78.0334 90.838 78.4806C91.4342 78.6432 91.4342 78.6432 92.1388 78.4806C92.787 78.0461 93.318 77.5087 93.8732 76.963C94.0847 76.7721 94.2963 76.5813 94.5142 76.3846C94.7344 76.1803 94.9543 75.9756 95.1739 75.7706C95.3796 75.5806 95.5853 75.3906 95.7972 75.1948C96.3733 74.4239 96.3758 74.0025 96.2579 73.0607C95.8238 72.4095 95.5515 72.2337 94.7945 72.0444Z" fill="#D2AE6D"/>
</svg>
