<svg width="64" height="64" viewBox="0 0 64 64" fill="none" xmlns="http://www.w3.org/2000/svg">
<path d="M31.125 8.62503C31.3886 8.86655 31.632 9.11231 31.875 9.37503C32.3084 9.18874 32.5864 8.93798 32.9219 8.6094C35.2412 6.49105 38.0749 5.99477 41.1152 6.10171C43.6942 6.25799 46.0393 7.7068 47.7891 9.53909C49.9145 11.9923 50.5688 14.8351 50.375 18C50.1118 21.0321 48.5682 23.874 46.75 26.25C46.6636 26.363 46.5773 26.4759 46.4883 26.5923C45.5191 27.8288 44.4376 28.9601 43.3281 30.0703C43.2195 30.1805 43.1109 30.2906 42.999 30.4041C42.2471 31.1577 41.4581 31.8382 40.625 32.5C40.4726 32.6252 40.3203 32.7506 40.1685 32.8765C38.2035 34.4849 36.1014 35.902 33.9197 37.1993C33.7227 37.3168 33.5273 37.4371 33.3337 37.56C32.682 37.9572 32.2643 38.1048 31.5 38C31.1773 37.868 30.9184 37.7413 30.625 37.5625C30.5416 37.5136 30.4582 37.4646 30.3722 37.4142C27.5508 35.7274 24.826 33.8181 22.375 31.625C22.2819 31.5426 22.1888 31.4601 22.0928 31.3752C20.2963 29.7751 18.5135 28.0996 17.125 26.125C17.0728 26.0521 17.0206 25.9791 16.9669 25.9039C14.6739 22.6761 13.1407 18.9703 13.6651 14.942C14.1535 12.1309 15.6556 9.6499 17.9609 7.96097C18.8672 7.32712 19.8375 6.87539 20.875 6.50003C20.9983 6.45491 21.1215 6.40979 21.2485 6.36331C24.6873 5.35819 28.4272 6.38374 31.125 8.62503ZM18.125 10.75C18.0378 10.833 17.9507 10.916 17.8608 11.0015C16.3944 12.4964 15.7278 14.5512 15.7031 16.6094C15.7426 20.6036 17.9909 24.0462 20.625 26.875C20.7688 27.0412 20.9121 27.2079 21.0547 27.375C21.8847 28.3233 22.7795 29.1735 23.7642 29.959C24.075 30.2097 24.3779 30.4673 24.6793 30.7292C26.4397 32.2516 28.3556 33.5817 30.3282 34.813C30.5392 34.946 30.7478 35.0828 30.9545 35.2222C31.0635 35.2933 31.1724 35.3643 31.2847 35.4375C31.3828 35.5033 31.4809 35.569 31.582 35.6367C31.877 35.7845 31.877 35.7845 32.1993 35.6584C32.5904 35.4524 32.9735 35.2366 33.3516 35.0078C33.4331 34.9586 33.5147 34.9093 33.5987 34.8586C35.8662 33.4723 37.9964 31.8682 40 30.125C40.092 30.0456 40.184 29.9662 40.2788 29.8843C40.5206 29.6744 40.7606 29.4627 41 29.25C41.1501 29.1173 41.1501 29.1173 41.3032 28.982C42.4344 27.9743 43.4285 26.9336 44.375 25.75C44.4573 25.6525 44.5397 25.5551 44.6245 25.4546C47.0037 22.6063 48.4594 19.2423 48.25 15.5C48.0207 13.4453 46.9565 11.7784 45.5 10.375C45.3951 10.2643 45.3951 10.2643 45.2881 10.1514C43.7712 8.66628 41.5488 8.18889 39.5156 8.2063C37.3429 8.26118 35.4327 9.09547 33.875 10.625C33.5407 11.0122 33.2286 11.4138 32.9233 11.8242C32.5636 12.187 32.3814 12.2448 31.875 12.25C31.3029 12.1143 31.0771 11.8305 30.7344 11.3672C29.4493 9.74763 27.587 8.50465 25.5 8.25003C22.6108 8.04193 20.221 8.63238 18.125 10.75Z" fill="#2D6B5E"/>
<path d="M60.3752 21.8203C61.029 22.1723 61.76 22.6543 62.0002 23.375C62.0262 23.6831 62.0459 23.9886 62.06 24.2973C62.0646 24.3915 62.0692 24.4857 62.0739 24.5827C62.3391 30.3452 62.3326 35.0014 59.5025 40.162C59.1242 40.8603 58.8074 41.5756 58.5051 42.3096C58.458 42.4233 58.411 42.537 58.3625 42.6541C58.2282 42.9801 58.0946 43.3064 57.9611 43.6328C56.8738 46.2889 55.2817 47.9643 52.9864 49.6956C52.5322 50.0405 52.0829 50.3917 51.633 50.7422C51.5378 50.8163 51.4425 50.8905 51.3443 50.9669C50.4775 51.6418 49.6124 52.319 48.7502 53C48.6411 53.0723 48.532 53.1446 48.4196 53.2191C48.0949 53.4761 48.0949 53.4761 48.0487 53.8605C48.0493 54 48.05 54.1395 48.0507 54.2832C48.0499 54.4417 48.049 54.6002 48.0482 54.7635C48.0492 54.8479 48.0502 54.9322 48.0513 55.0191C48.0544 55.284 48.0538 55.5487 48.0523 55.8136C48.0497 56.3758 48.0521 56.9378 48.0549 57.5C48.0575 58.1516 48.0581 58.803 48.0548 59.4546C48.0544 59.7153 48.0571 59.9758 48.0599 60.2365C48.0594 60.395 48.059 60.5535 48.0585 60.7168C48.0593 60.8563 48.0601 60.9958 48.0609 61.1395C47.9865 61.5817 47.8486 61.7271 47.5002 62C47.2502 62.0664 47.2502 62.0664 47.0002 62.0625C46.9177 62.0638 46.8352 62.0651 46.7502 62.0664C46.3788 61.9678 46.2385 61.7995 46.0002 61.5C45.9317 61.101 45.9317 61.101 45.9236 60.6234C45.9215 60.5362 45.9194 60.4489 45.9173 60.359C45.9113 60.0708 45.9091 59.7828 45.9074 59.4946C45.9052 59.2935 45.9029 59.0923 45.9006 58.8911C45.8965 58.4692 45.8945 58.0474 45.8938 57.6255C45.8925 57.087 45.8831 56.5491 45.8716 56.0107C45.8642 55.595 45.8624 55.1793 45.8621 54.7634C45.8611 54.5651 45.858 54.3668 45.8528 54.1686C45.8152 52.624 45.8152 52.6241 46.2733 52.0074C46.5858 51.723 46.8987 51.4835 47.2502 51.25C47.3897 51.1394 47.5285 51.0279 47.6662 50.915C47.7868 50.8245 47.9073 50.7339 48.0315 50.6406C48.1704 50.5354 48.3092 50.4301 48.448 50.3247C48.5182 50.2716 48.5883 50.2184 48.6607 50.1636C49.0242 49.8863 49.3833 49.6033 49.7424 49.3203C49.8147 49.2634 49.8869 49.2065 49.9614 49.1479C50.1084 49.0321 50.2553 48.9163 50.4022 48.8005C50.7036 48.5633 51.0055 48.3266 51.3073 48.0899C51.5973 47.8624 51.8868 47.6344 52.1763 47.4063C52.3611 47.261 52.5466 47.1166 52.7321 46.9722C54.259 45.7733 55.1025 44.5521 55.8591 42.7622C55.9141 42.6346 55.969 42.5069 56.0257 42.3754C56.3285 41.6708 56.6258 40.964 56.9214 40.2564C57.044 39.9641 57.1668 39.672 57.2898 39.3799C57.3502 39.2362 57.4107 39.0925 57.473 38.9445C57.8076 38.1619 58.1667 37.4162 58.5974 36.6826C60.7112 32.9538 60.0377 28.2678 59.8752 24.125C59.287 23.8148 58.7836 23.776 58.1252 23.875C57.325 24.3492 56.9593 25.1246 56.7258 26.0019C56.6853 26.178 56.6466 26.3545 56.6096 26.5312C56.5783 26.674 56.5783 26.674 56.5464 26.8197C56.3683 27.6799 56.2788 28.5442 56.2216 29.4203C56.1782 29.9967 56.1205 30.405 55.7502 30.875C55.3579 31.0712 55.0579 31.044 54.6252 31C54.258 30.7969 54.258 30.7969 54.0002 30.375C53.6276 27.9121 54.3838 24.8768 55.7736 22.8516C56.9534 21.6718 58.7859 21.1678 60.3752 21.8203Z" fill="#2D6B5E"/>
<path d="M7.24493 22.0742C7.32904 22.1322 7.41315 22.1902 7.49981 22.25C7.63387 22.3402 7.76794 22.4304 7.90606 22.5234C9.22916 23.8766 9.58737 25.6997 9.87481 27.5C9.89995 27.6566 9.89995 27.6566 9.92559 27.8164C9.96188 28.0865 9.98399 28.3529 9.99981 28.625C10.0093 28.7684 10.0188 28.9118 10.0286 29.0595C10.0743 30.253 10.0743 30.253 9.742 30.7969C9.28053 31.0521 9.01965 31.085 8.49981 31C8.1138 30.6952 7.90148 30.4447 7.83413 29.953C7.81632 29.7686 7.81632 29.7686 7.79815 29.5805C7.63075 26.6254 7.63075 26.6254 6.24981 24.125C5.84638 23.856 5.72418 23.8409 5.25763 23.8437C5.15079 23.8431 5.04396 23.8424 4.93389 23.8418C4.60755 23.8768 4.4114 23.9723 4.12481 24.125C3.76661 29.8016 3.8756 34.182 6.63214 39.2965C7.14165 40.2518 7.54797 41.247 7.95531 42.2489C8.93064 44.6474 10.0848 46.1586 12.1605 47.713C12.5146 47.9806 12.8625 48.256 13.2108 48.5312C13.7983 48.9946 14.3882 49.4547 14.9797 49.9131C17.462 51.8372 17.462 51.8372 17.9998 52.375C18.0332 52.7481 18.0332 52.7481 18.0361 53.2331C18.037 53.3213 18.0378 53.4095 18.0387 53.5004C18.0411 53.7929 18.0415 54.0854 18.0418 54.3779C18.0426 54.5809 18.0434 54.784 18.0443 54.987C18.0458 55.413 18.0463 55.839 18.0461 56.265C18.0461 56.8109 18.0495 57.3567 18.0538 57.9026C18.0566 58.3221 18.0571 58.7416 18.057 59.1611C18.0573 59.3624 18.0584 59.5636 18.0603 59.7648C18.0628 60.0465 18.062 60.3279 18.0605 60.6095C18.0609 60.7698 18.0613 60.93 18.0616 61.0951C17.9894 61.5683 17.8762 61.7146 17.4998 62C17.2498 62.0664 17.2498 62.0664 16.9998 62.0625C16.8761 62.0644 16.8761 62.0644 16.7498 62.0664C16.3819 61.9686 16.2371 61.7944 15.9998 61.5C15.9484 61.1471 15.9484 61.1471 15.9633 60.7346C15.9693 60.5023 15.9693 60.5023 15.9754 60.2653C15.9785 60.1828 15.9817 60.1002 15.9849 60.0152C15.9941 59.7548 15.9988 59.4946 16.0021 59.234C16.0115 58.4934 16.0232 57.7532 16.0516 57.0131C16.2315 54.8252 16.2315 54.8252 15.4481 52.9057C15.043 52.5412 14.6085 52.2653 14.1266 52.0134C13.7307 51.7957 13.3978 51.518 13.0467 51.2344C12.916 51.1346 12.7853 51.0349 12.6507 50.9321C12.151 50.5504 11.6566 50.162 11.1634 49.7719C10.7932 49.4792 10.4213 49.1896 10.0442 48.9057C8.25112 47.5471 7.05241 46.0511 6.17706 43.9638C6.12555 43.8435 6.07403 43.7232 6.02096 43.5993C5.73467 42.929 5.45449 42.2563 5.17648 41.5826C4.66429 40.3479 4.16101 39.14 3.48028 37.9878C1.75829 34.9553 1.81844 31.8789 1.84356 28.4765C1.84444 28.3531 1.84532 28.2297 1.84623 28.1026C1.85331 27.2721 1.86818 26.442 1.88848 25.6118C1.89082 25.5022 1.89315 25.3926 1.89555 25.2797C1.9028 24.9708 1.91266 24.6622 1.92352 24.3534C1.9255 24.263 1.92749 24.1725 1.92953 24.0794C1.95761 23.4222 2.12882 23.0203 2.56768 22.5381C3.84827 21.4248 5.75947 21.1799 7.24493 22.0742Z" fill="#2D6B5E"/>
<path d="M55.6251 33.875C55.754 33.973 55.8829 34.0709 56.0157 34.1719C56.3093 34.5829 56.3217 34.8313 56.3092 35.3265C56.1983 35.8865 55.8173 36.2057 55.4164 36.5884C55.3278 36.6773 55.2392 36.7663 55.1479 36.858C54.8555 37.1503 54.5593 37.4384 54.2628 37.7266C54.0586 37.929 53.8546 38.1317 53.6508 38.3346C53.1146 38.8673 52.575 39.3964 52.0347 39.925C51.4845 40.4645 50.9378 41.0076 50.3907 41.5503C49.5925 42.3406 48.7936 43.13 47.9911 43.916C47.9067 43.9991 47.8223 44.0822 47.7353 44.1679C47.6582 44.2432 47.5811 44.3185 47.5016 44.3961C47.4345 44.4618 47.3675 44.5275 47.2984 44.5952C47.0075 44.855 46.853 44.877 46.4532 44.9141C46.0001 44.875 46.0001 44.875 45.7032 44.6719C45.452 44.3046 45.3842 44.07 45.3751 43.625C45.651 43.0578 46.0612 42.6549 46.5041 42.2176C46.5798 42.1419 46.6554 42.0663 46.7333 41.9883C46.9823 41.7395 47.2322 41.4916 47.482 41.2436C47.6553 41.0708 47.8285 40.898 48.0017 40.7251C48.4567 40.271 48.9125 39.8176 49.3685 39.3645C49.8339 38.9016 50.2987 38.4379 50.7635 37.9744C51.675 37.0655 52.5873 36.1575 53.5001 35.25C52.8981 34.7757 52.3242 34.5907 51.5548 34.6172C50.2346 34.8007 49.1906 35.5083 48.2525 36.4077C48.1722 36.4836 48.0919 36.5595 48.0092 36.6378C47.4167 37.2029 46.8442 37.786 46.2765 38.376C46.1958 38.4593 46.1152 38.5427 46.0321 38.6286C45.5389 39.1385 45.5389 39.1385 45.0503 39.6528C43.3936 41.4088 43.3936 41.4088 42.1135 41.6724C40.2474 42.0708 38.6201 43.6225 37.6002 45.166C36.2028 47.4548 36.0889 49.8293 36.0908 52.441C36.0909 52.8125 36.0893 53.1841 36.0872 53.5556C36.0815 54.6101 36.0783 55.6646 36.0775 56.7191C36.0769 57.3683 36.0739 58.0175 36.0693 58.6667C36.0681 58.913 36.0678 59.1592 36.0685 59.4055C36.0694 59.748 36.0672 60.0903 36.0644 60.4328C36.0654 60.534 36.0664 60.6352 36.0675 60.7395C36.0608 61.1914 36.0398 61.4479 35.7617 61.8125C35.4783 62.0156 35.3448 62.0679 35.0001 62.0625C34.9176 62.0638 34.8351 62.0651 34.7501 62.0664C34.3637 61.9638 34.2393 61.8238 34.0001 61.5C33.9238 61.0908 33.9318 60.6854 33.9354 60.2701C33.9345 60.1453 33.9337 60.0204 33.9328 59.8917C33.9306 59.4779 33.932 59.0642 33.9337 58.6504C33.9334 58.3616 33.9329 58.0729 33.9323 57.7841C33.9315 57.1776 33.9326 56.5711 33.9349 55.9645C33.9378 55.1921 33.9361 54.4197 33.9331 53.6472C33.9313 53.0499 33.9319 52.4525 33.9332 51.8552C33.9335 51.5707 33.9331 51.2863 33.932 51.0019C33.9207 47.5127 34.7563 44.6469 37.1969 42.042C38.4198 40.8644 39.9421 39.8829 41.5844 39.428C42.4358 39.1459 42.9274 38.696 43.5309 38.0493C43.6331 37.9445 43.7353 37.8397 43.8407 37.7316C44.1645 37.3989 44.4849 37.0631 44.8048 36.7266C47.8187 33.5814 51.4483 30.5771 55.6251 33.875Z" fill="#2D6B5E"/>
<path d="M16.045 33.7071C16.814 34.3207 17.4987 34.9909 18.1822 35.6972C18.2767 35.7946 18.3713 35.892 18.4687 35.9923C18.8628 36.399 19.2566 36.8058 19.646 37.217C20.8131 38.446 21.6925 39.3451 23.3751 39.75C24.3912 40.1675 25.2911 40.7938 26.1251 41.5C26.2066 41.5635 26.2881 41.6269 26.3721 41.6924C28.2409 43.2038 29.3424 45.4478 29.8751 47.75C29.897 47.8346 29.919 47.9193 29.9416 48.0066C30.0281 48.5516 30.0206 49.0918 30.0222 49.6428C30.023 49.7701 30.0238 49.8974 30.0247 50.0286C30.0271 50.4489 30.0286 50.8692 30.0298 51.2895C30.0304 51.4331 30.0309 51.5767 30.0314 51.7247C30.034 52.4839 30.0358 53.2431 30.037 54.0023C30.0383 54.7873 30.0427 55.5724 30.0476 56.3574C30.0509 56.9606 30.0519 57.5638 30.0524 58.167C30.053 58.4565 30.0544 58.746 30.0567 59.0355C30.0598 59.4398 30.0597 59.844 30.0588 60.2483C30.0612 60.4282 30.0612 60.4282 30.0637 60.6118C30.0573 61.4221 30.0573 61.4221 29.762 61.824C29.4793 62.0139 29.3375 62.0677 29.0001 62.0625C28.8763 62.0644 28.8763 62.0644 28.7501 62.0664C28.3708 61.9656 28.2384 61.8124 28.0001 61.5C27.951 61.1288 27.932 60.8038 27.9358 60.4327C27.9349 60.3251 27.934 60.2175 27.9331 60.1067C27.9307 59.7503 27.9317 59.394 27.9327 59.0376C27.9314 58.7883 27.9299 58.5391 27.9282 58.2899C27.9242 57.6321 27.9229 56.9743 27.9224 56.3165C27.9213 55.2695 27.9168 54.2226 27.9108 53.1757C27.9093 52.8128 27.9094 52.45 27.9096 52.0872C27.9029 48.8467 27.4621 46 25.1026 43.5864C24.1578 42.6848 22.9426 41.8803 21.6708 41.5358C20.6436 41.2489 20.0574 40.8152 19.3355 40.0449C19.2327 39.9398 19.1299 39.8346 19.0239 39.7263C18.6984 39.3928 18.3764 39.056 18.0547 38.7187C17.7321 38.3838 17.4087 38.0496 17.0842 37.7165C16.8835 37.5101 16.6839 37.3025 16.4856 37.0937C15.3089 35.8756 13.9379 34.7316 12.1876 34.6113C11.5596 34.6388 10.9493 34.8007 10.5001 35.25C10.6 35.3485 10.7 35.4471 10.8029 35.5486C11.7445 36.4776 12.6845 37.4081 13.6228 38.3403C14.1053 38.8195 14.5883 39.2981 15.0727 39.7754C15.5401 40.236 16.0059 40.6981 16.4707 41.1614C16.6484 41.3378 16.8265 41.5137 17.0053 41.6891C17.2555 41.9348 17.5037 42.1824 17.7515 42.4305C17.8259 42.5026 17.9002 42.5747 17.9768 42.649C18.3991 43.0766 18.6151 43.3705 18.6251 44C18.4533 44.3598 18.2813 44.5937 18.0001 44.875C17.6094 44.9453 17.6094 44.9453 17.1251 44.875C16.89 44.7066 16.89 44.7066 16.6499 44.4862C16.5626 44.4065 16.4752 44.3269 16.3852 44.2448C16.0009 43.8831 15.6192 43.5195 15.2427 43.1497C15.1609 43.0697 15.0791 42.9897 14.9948 42.9072C14.2496 42.1777 13.5078 41.4446 12.767 40.7105C12.2707 40.2187 11.7733 39.728 11.2733 39.24C10.7874 38.7657 10.3044 38.2887 9.82315 37.8097C9.63991 37.6282 9.4557 37.4477 9.27051 37.2682C9.01197 37.0172 8.75719 36.763 8.50299 36.5076C8.42625 36.4347 8.34951 36.3618 8.27044 36.2867C7.86952 35.8758 7.70377 35.6082 7.69434 35.0242C7.71238 34.6994 7.73925 34.5211 7.88873 34.2295C10.3526 32.0354 13.3239 31.7967 16.045 33.7071Z" fill="#2D6B5E"/>
<path d="M9.62488 3.75006C9.98231 3.96099 9.98231 3.96099 10.3436 4.25006C10.5375 4.40305 10.5375 4.40305 10.7352 4.55914C10.8651 4.66444 10.995 4.76975 11.1249 4.87506C11.2457 4.97029 11.3666 5.06552 11.4911 5.16363C12.3113 5.81148 12.3113 5.81148 12.6249 6.12506C12.6954 6.73974 12.7207 6.98982 12.3593 7.50006C11.9299 7.79875 11.7628 7.80605 11.2499 7.75006C10.9198 7.56646 10.9198 7.56646 10.5936 7.31256C10.4757 7.22184 10.3577 7.13112 10.2362 7.03765C10.117 6.94275 9.99774 6.84784 9.87488 6.75006C9.75822 6.65902 9.64156 6.56798 9.52137 6.47418C8.28879 5.50289 8.28879 5.50289 8.14051 5.01568C8.12173 4.54617 8.21445 4.36704 8.49988 4.00006C8.94099 3.70599 9.10527 3.68862 9.62488 3.75006Z" fill="#2D6B5E"/>
<path d="M55.125 3.75003C55.552 3.99677 55.7153 4.1482 55.875 4.61722C55.875 5.17348 55.6994 5.42251 55.3135 5.81448C54.777 6.30723 54.1934 6.74528 53.6094 7.17972C53.5362 7.2359 53.463 7.29209 53.3875 7.34997C52.9103 7.69664 52.5889 7.83786 52 7.75003C51.5247 7.41941 51.3955 7.2143 51.2656 6.64847C51.3019 6.17476 51.4759 5.9662 51.8203 5.64847C52.0441 5.47048 52.2712 5.29651 52.5 5.12503C52.6554 5.00228 52.8106 4.87939 52.9658 4.75638C53.1306 4.62893 53.2956 4.50181 53.4609 4.37503C53.5789 4.2825 53.5789 4.2825 53.6992 4.18811C54.184 3.82764 54.4985 3.65462 55.125 3.75003Z" fill="#2D6B5E"/>
<path d="M57.8281 9.81252C58.0639 10.2412 58.1268 10.6477 58 11.125C57.5804 11.7628 56.8705 11.8212 56.1719 11.9688C56.0534 11.9963 55.935 12.0239 55.813 12.0523C55.0544 12.2193 54.2771 12.359 53.5 12.25C53.1076 11.9324 53.0198 11.7441 52.9375 11.25C53.0198 10.7562 53.1337 10.5962 53.5 10.25C53.9323 10.0814 54.3741 9.9904 54.8281 9.89846C54.9466 9.87147 55.065 9.84448 55.187 9.81667C57.1102 9.4023 57.1102 9.4023 57.8281 9.81252Z" fill="#2D6B5E"/>
<path d="M9.17212 9.89848C9.35411 9.93534 9.35411 9.93534 9.53979 9.97294C10.0841 10.095 10.4177 10.1721 10.8293 10.5611C11.046 10.9591 11.0748 11.1779 11.0002 11.625C10.8284 11.9844 10.8284 11.9844 10.5002 12.25C9.5989 12.3764 8.70267 12.1722 7.82837 11.9688C7.70703 11.9432 7.5857 11.9175 7.46069 11.8912C6.33584 11.6352 6.33584 11.6352 6.00024 11.125C5.87345 10.6477 5.93635 10.2412 6.17212 9.81254C7.03865 9.31738 8.25358 9.68915 9.17212 9.89848Z" fill="#2D6B5E"/>
</svg>
