<svg width="97" height="99" viewBox="0 0 97 99" fill="none" xmlns="http://www.w3.org/2000/svg">
<ellipse cx="48.5" cy="49.4653" rx="48.5" ry="48.7348" fill="#1B453C"/>
<path d="M80.7365 39.0832C81.0627 39.1028 81.3889 39.1197 81.7151 39.1365C81.9264 39.1493 82.1376 39.1622 82.3489 39.1754C82.5365 39.1862 82.724 39.197 82.9173 39.2081C83.5495 39.3047 84.0149 39.4477 84.5705 39.7684C85.0072 40.5562 84.9352 41.4695 84.9345 42.3504C84.9358 42.587 84.9358 42.587 84.9372 42.8284C84.9391 43.3385 84.9381 43.8485 84.9364 44.3586C84.9358 44.6188 84.9358 44.6188 84.9353 44.8842C84.9275 47.3412 84.901 49.7519 84.4123 52.168C84.3809 52.3275 84.3494 52.487 84.3171 52.6514C83.0731 58.7749 80.3313 64.2192 75.0871 67.7979C71.185 70.3769 66.7127 71.3222 62.1057 71.5622C61.9217 71.5718 61.7378 71.5815 61.5483 71.5914C60.0858 71.6242 58.6201 71.4618 57.1649 71.3293C57.0272 71.3169 56.8895 71.3044 56.7477 71.2915C56.4104 71.2443 56.4104 71.2443 56.094 71.0853C56.0768 71.191 56.0597 71.2968 56.042 71.4057C55.9369 71.875 55.7873 72.314 55.6246 72.7658C55.0835 74.2784 54.7514 75.7909 54.4982 77.3778C54.3306 78.3386 54.2136 78.9307 53.4045 79.5107C52.9299 79.61 52.9299 79.61 52.4553 79.5107C52.0004 79.2027 52.0004 79.2027 51.6643 78.7158C51.5412 77.7811 51.7042 76.8369 51.9016 75.9239C51.9293 75.7956 51.957 75.6672 51.9856 75.535C53.4064 69.3002 56.573 63.5352 60.6818 58.6857C60.8167 58.5209 60.9514 58.3559 61.086 58.1908C62.0422 57.0301 63.063 55.9463 64.1228 54.8804C64.2481 54.7544 64.3733 54.6283 64.5024 54.4985C65.655 53.3512 66.8719 52.2953 68.1273 51.2638C68.233 51.1756 68.3388 51.0874 68.4477 50.9965C70.1269 49.6174 70.1269 49.6174 71.0046 49.6344C71.4593 49.7902 71.6527 49.8592 71.9143 50.2603C72.0727 50.7833 72.1333 51.0774 71.9087 51.5824C71.4929 52.153 70.9937 52.5407 70.441 52.9728C70.2105 53.1574 69.9802 53.3422 69.7501 53.5273C69.6347 53.6196 69.5193 53.712 69.4005 53.8071C66.9517 55.7764 64.6658 57.9423 62.7385 60.4344C62.5942 60.6097 62.4493 60.7846 62.304 60.9591C60.3357 63.3404 58.7384 65.9369 57.3596 68.7008C63.3334 69.1077 70.14 68.7074 74.9004 64.5551C75.0113 64.4543 75.1222 64.3535 75.2365 64.2496C75.3573 64.1488 75.478 64.048 75.6024 63.9441C79.9907 60.2198 81.6288 54.1331 82.1633 48.614C82.2166 47.9588 82.2343 47.3045 82.2475 46.6475C82.2525 46.4392 82.2525 46.4392 82.2575 46.2266C82.2677 45.7894 82.2771 45.3522 82.2865 44.915C82.2933 44.6159 82.3002 44.3168 82.3072 44.0177C82.324 43.2901 82.34 42.5626 82.3557 41.835C74.3078 41.4065 65.295 41.839 58.7834 47.2399C58.6553 47.3444 58.5273 47.4489 58.3953 47.5566C55.7911 49.7729 54.1577 52.951 53.276 56.2217C53.2451 56.3345 53.2143 56.4474 53.1825 56.5636C52.5618 59.0328 52.5824 61.4842 52.6438 64.0092C52.6534 64.4296 52.659 64.85 52.6642 65.2705C52.6684 65.3983 52.6727 65.5262 52.6771 65.6579C52.6823 66.2375 52.6675 66.5625 52.3137 67.032C51.8531 67.3612 51.5651 67.3629 51.016 67.329C50.715 67.27 50.715 67.27 50.3294 67.0415C48.8586 64.6177 49.9017 58.8167 50.4964 56.1866C51.2822 52.934 52.6495 49.9546 54.8283 47.3989C54.9336 47.27 55.0388 47.1411 55.1472 47.0083C59.4204 41.9591 66.6086 39.764 72.9617 39.1859C75.5609 38.9761 78.1321 38.9219 80.7365 39.0832Z" fill="white"/>
<path d="M59.5161 32.7855C60.8428 33.9201 61.8766 35.2303 62.7383 36.7479C62.8322 36.9127 62.8322 36.9127 62.928 37.0807C63.1368 37.5803 63.0174 37.9822 62.8965 38.4966C62.7284 38.8046 62.7284 38.8046 62.4218 38.9735C61.922 39.0464 61.6318 39.0849 61.1562 38.9735C60.8121 38.6536 60.6179 38.4061 60.3652 38.0197C60.1585 37.7309 59.9508 37.4428 59.7423 37.1553C59.6324 37.0034 59.5224 36.8516 59.4092 36.6951C59.307 36.5552 59.2048 36.4152 59.0996 36.271C58.9879 36.1176 58.9879 36.1176 58.874 35.9611C56.9579 33.5246 53.7135 32.1736 50.7148 31.8199C47.3771 31.6217 44.367 32.5024 41.6972 34.5223C41.5822 34.6086 41.4672 34.6949 41.3487 34.7838C39.0612 36.6434 37.7745 39.4975 37.1093 42.3118C37.2242 42.3524 37.339 42.393 37.4573 42.4348C38.9342 43.0847 40.6455 44.6802 41.3808 46.1271C41.4671 46.7556 41.4761 47.0842 41.1435 47.6274C40.5974 47.9704 40.101 48.013 39.4824 47.8757C39.0746 47.5865 38.785 47.2217 38.4738 46.8325C36.5037 44.5454 33.9392 43.3137 30.9258 43.0812C28.1686 42.9754 25.4067 43.9542 23.3457 45.8091C23.2411 45.9016 23.1364 45.994 23.0287 46.0892C21.1612 47.8447 19.9141 50.3887 19.8176 52.9708C19.7824 56.1115 20.4515 58.9002 22.6687 61.2242C25.0933 63.6368 28.0067 64.5885 31.3598 64.5926C31.5071 64.5934 31.6544 64.5942 31.8062 64.595C32.1238 64.5967 32.4415 64.5981 32.7591 64.5992C33.2618 64.6011 33.7645 64.6042 34.2672 64.6076C35.6956 64.6174 37.124 64.626 38.5525 64.6313C39.4279 64.6346 40.3033 64.6402 41.1787 64.6473C41.512 64.6496 41.8453 64.651 42.1786 64.6515C42.6436 64.6522 43.1086 64.6559 43.5736 64.6603C43.7113 64.6598 43.8491 64.6593 43.991 64.6588C44.5486 64.6666 44.9199 64.6729 45.417 64.9405C45.7698 65.3346 45.8001 65.6333 45.8105 66.1572C45.6255 66.5876 45.469 66.8557 45.089 67.1308C44.5032 67.3421 43.9185 67.3141 43.3038 67.3111C43.1625 67.3117 43.0211 67.3122 42.8755 67.3128C42.4076 67.3142 41.9396 67.3133 41.4717 67.3122C41.1448 67.3124 40.818 67.3127 40.4912 67.3131C39.8048 67.3136 39.1185 67.3129 38.4321 67.3114C37.5584 67.3096 36.6847 67.3107 35.811 67.3126C35.1349 67.3137 34.4588 67.3133 33.7827 67.3125C33.461 67.3123 33.1393 67.3126 32.8176 67.3133C30.5162 67.3175 28.2142 67.3082 26.0154 66.5347C25.8965 66.4936 25.7776 66.4525 25.6551 66.4101C23.8315 65.7474 22.3414 64.6689 20.9726 63.2958C20.8507 63.1751 20.7287 63.0544 20.6031 62.93C17.9801 60.1819 17.059 56.6585 17.1276 52.9367C17.2672 49.3678 19.0037 46.1618 21.5566 43.7264C23.7267 41.7537 26.5966 40.5677 29.5156 40.4042C29.6526 40.3958 29.7897 40.3874 29.9309 40.3787C31.4689 40.3304 33.1145 40.5498 34.5781 41.0401C34.6319 40.8727 34.6858 40.7052 34.7412 40.5327C35.4711 38.3256 36.3706 36.297 37.9004 34.5223C38.0019 34.3957 38.1035 34.2691 38.2081 34.1386C40.5545 31.3284 44.1805 29.6097 47.7633 29.1677C52.1234 28.7885 56.1205 29.98 59.5161 32.7855Z" fill="white"/>
<path d="M17.9668 67.4289C18.8579 68.2398 19.4402 69.1116 19.5927 70.3202C19.6427 71.4766 19.3631 72.523 18.649 73.4399C17.9872 74.1566 17.0143 74.6831 16.0368 74.7738C14.7422 74.7983 13.7246 74.5117 12.6837 73.7219C11.8529 72.8972 11.5284 71.8701 11.4409 70.7275C11.5323 69.3505 12.0262 68.3439 13.0625 67.4289C14.5782 66.429 16.459 66.3382 17.9668 67.4289ZM14.4863 69.6545C14.1148 70.1149 14.0095 70.3402 14.0216 70.9362C14.1965 71.4867 14.3339 71.7043 14.8027 72.039C15.4201 72.2082 15.7613 72.2612 16.3551 72.0092C16.7279 71.6988 16.8884 71.5526 17.0176 71.0852C16.9959 70.4742 16.9472 70.0967 16.5924 69.5949C15.8212 69.0503 15.2149 69.0609 14.4863 69.6545Z" fill="white"/>
<path d="M62.152 19.3593C63.189 20.2033 63.812 21.0968 64.0041 22.4405C64.0809 23.7558 63.7167 24.7554 62.8967 25.7789C62.0535 26.5882 61.1482 26.9029 59.9897 26.9413C58.7542 26.9127 57.882 26.5688 56.9703 25.728C56.1205 24.7961 55.8744 23.7883 55.8925 22.5554C56.0104 21.3763 56.5098 20.4275 57.3874 19.6437C58.6502 18.6655 60.7707 18.4944 62.152 19.3593ZM58.7241 21.9835C58.4185 22.5267 58.4057 22.8132 58.5189 23.4148C58.6979 23.9156 58.9577 24.1024 59.4162 24.3482C59.9751 24.4301 60.2825 24.3841 60.8005 24.1594C61.2228 23.8176 61.3478 23.6043 61.4729 23.0764C61.4584 22.4932 61.3273 22.2966 60.9488 21.8444C60.1104 21.139 59.5335 21.2557 58.7241 21.9835Z" fill="white"/>
<path d="M29.4858 28.0145C30.6525 28.7271 31.5496 29.493 31.8886 30.866C32.0429 32.076 31.9616 33.1849 31.2557 34.2044C30.4162 35.1312 29.6583 35.7001 28.3957 35.853C27.1754 35.8787 26.2368 35.7496 25.244 34.9992C24.3555 34.0785 23.9336 33.1575 23.9092 31.8695C23.931 30.6402 24.1802 29.6903 25.0759 28.8193C26.407 27.7655 27.8468 27.5555 29.4858 28.0145ZM26.8359 30.707C26.4731 31.2373 26.3897 31.5177 26.4336 32.1477C26.5712 32.705 26.8388 32.9345 27.3007 33.2505C27.9814 33.3605 28.283 33.3325 28.8629 32.9525C29.2603 32.5532 29.3449 32.409 29.4067 31.8496C29.346 31.2267 29.1528 30.9911 28.7245 30.5481C28.037 30.2027 27.4569 30.2822 26.8359 30.707Z" fill="white"/>
<path d="M26.9842 75.3773C27.4588 75.7747 27.4588 75.7747 27.7752 76.1721C27.8274 76.2246 27.8796 76.2771 27.9334 76.3311C28.0185 76.9799 28.0812 77.6426 27.7678 78.2325C27.4016 78.6763 27.094 79.0061 26.5115 79.0659C25.7515 79.0813 25.2077 79.0856 24.6112 78.5567C24.1534 77.8973 24.0683 77.4033 24.2033 76.6323C24.3804 76.0491 24.7099 75.67 25.2217 75.3556C25.8144 75.1154 26.379 75.2049 26.9842 75.3773Z" fill="white"/>
<path d="M30.7417 50.3001C31.3106 50.7447 31.5277 51.0414 31.7107 51.7507C31.7373 52.5268 31.505 52.9782 31.0185 53.5689C30.4675 54.0072 29.8692 53.963 29.1992 53.9166C28.611 53.648 28.2762 53.3499 27.9336 52.8038C27.7973 52.0453 27.8223 51.4058 28.2104 50.7372C28.9825 50.0476 29.7554 49.8496 30.7417 50.3001Z" fill="white"/>
<path d="M50.2205 19.4998C50.697 20.0631 50.8448 20.5927 50.8731 21.328C50.7619 21.9284 50.5153 22.3338 50.0623 22.7487C49.4219 22.9866 48.8571 23.0485 48.1837 22.9177C47.6984 22.6439 47.3289 22.3125 47.0763 21.8049C46.9943 21.0419 46.9636 20.4164 47.3432 19.7383C48.251 18.9494 49.1798 18.9542 50.2205 19.4998Z" fill="white"/>
<path d="M47.0761 38.8144C47.6492 39.1138 47.9762 39.4612 48.1835 40.0861C48.2556 40.8227 48.3022 41.2986 47.8374 41.8944C47.1628 42.527 47.1628 42.527 46.6015 42.6296C45.8437 42.5736 45.3273 42.4621 44.7821 41.9142C44.3871 41.2527 44.3216 40.8703 44.3866 40.0861C45.0464 38.8744 45.7565 38.6085 47.0761 38.8144Z" fill="white"/>
<path d="M16.2264 34.5223C16.8605 34.8931 17.1993 35.2379 17.4228 35.9332C17.5511 36.6378 17.3929 37.0886 17.0174 37.7017C16.5074 38.156 16.1894 38.3202 15.5144 38.4171C14.8581 38.3228 14.5226 38.1197 14.0115 37.7017C13.5641 37.0274 13.5715 36.427 13.6951 35.6351C14.2734 34.5549 15.085 34.3566 16.2264 34.5223Z" fill="white"/>
<path d="M38.3752 56.7779C38.8864 57.0241 39.0821 57.2111 39.2997 57.7355C39.4775 58.3586 39.5402 58.8481 39.3047 59.4605C38.8857 60.1622 38.6372 60.3647 37.8512 60.5733C37.1487 60.5972 36.7673 60.4681 36.1604 60.1163C35.6494 59.5531 35.5958 58.9809 35.6178 58.244C35.7342 57.639 36.0377 57.3571 36.4768 56.9369C37.0646 56.6416 37.7336 56.7089 38.3752 56.7779Z" fill="white"/>
</svg>
