<?xml version="1.0" encoding="UTF-8"?>
<!DOCTYPE svg PUBLIC "-//W3C//DTD SVG 1.1//EN" "http://www.w3.org/Graphics/SVG/1.1/DTD/svg11.dtd">
<svg xmlns="http://www.w3.org/2000/svg" version="1.1" width="465px" height="400px" style="shape-rendering:geometricPrecision; text-rendering:geometricPrecision; image-rendering:optimizeQuality; fill-rule:evenodd; clip-rule:evenodd" xmlns:xlink="http://www.w3.org/1999/xlink">
<g><path style="opacity:0.935" fill="#d1ae6d" d="M 220.5,22.5 C 224.136,22.7707 226.97,24.4374 229,27.5C 233.174,33.8455 236.841,40.5122 240,47.5C 253.865,16.0956 265.365,17.0956 274.5,50.5C 278.952,44.2133 284.286,38.7133 290.5,34C 292.5,33.3333 294.5,33.3333 296.5,34C 298.053,36.6549 299.22,39.4883 300,42.5C 300.739,50.1787 301.572,57.8454 302.5,65.5C 309.579,58.9235 317.579,53.7568 326.5,50C 330.143,48.6434 332.31,49.8101 333,53.5C 334.118,63.8815 334.618,74.2148 334.5,84.5C 344.683,78.6547 355.517,74.6547 367,72.5C 370.818,71.6576 372.985,73.1576 373.5,77C 370.801,87.3976 366.468,97.0642 360.5,106C 370.847,102.582 381.513,100.082 392.5,98.5C 400.23,98.3887 403.396,102.055 402,109.5C 397.794,119.414 391.96,128.248 384.5,136C 394.072,134.964 403.739,134.631 413.5,135C 416.914,135.297 420.247,135.964 423.5,137C 425.18,137.347 426.18,138.347 426.5,140C 422.364,148.147 416.697,155.147 409.5,161C 381.037,184.57 349.037,201.903 313.5,213C 291.428,217.816 269.428,217.649 247.5,212.5C 241.407,234.878 246.407,254.378 262.5,271C 264.976,270.253 267.309,268.919 269.5,267C 272.257,266.416 274.923,266.75 277.5,268C 283.145,273.977 289.145,279.643 295.5,285C 298.311,285.911 301.144,286.744 304,287.5C 309.28,286.407 314.446,284.907 319.5,283C 332.833,276 346.167,269 359.5,262C 375.774,256.036 391.107,257.703 405.5,267C 410.291,270.742 412.124,275.576 411,281.5C 407.069,293.366 401.069,304.033 393,313.5C 369.785,338.71 342.618,358.544 311.5,373C 279.477,384.979 249.644,381.146 222,361.5C 196.251,380.312 168.084,384.812 137.5,375C 100.283,359.44 69.116,335.94 44,304.5C 38.9968,297.493 35.3301,289.826 33,281.5C 31.4272,274.807 33.5939,269.641 39.5,266C 52.6929,258.117 66.6929,256.451 81.5,261C 95.9584,268.063 110.292,275.396 124.5,283C 129.649,285.121 134.982,286.621 140.5,287.5C 144.884,286.474 148.884,284.641 152.5,282C 156.5,276.667 161.167,272 166.5,268C 171.973,265.362 176.473,266.528 180,271.5C 197.02,255.419 202.52,235.919 196.5,213C 157.325,221.194 120.325,215.194 85.5,195C 61.8072,182.977 40.6405,167.477 22,148.5C 20.1105,145.888 18.6105,143.055 17.5,140C 17.8198,138.347 18.8198,137.347 20.5,137C 23.7527,135.964 27.086,135.297 30.5,135C 40.2376,134.628 49.9043,134.962 59.5,136C 52.0398,128.248 46.2065,119.414 42,109.5C 40.3416,101.486 43.675,97.8195 52,98.5C 62.8034,100.16 73.3034,102.66 83.5,106C 77.1455,97.4554 72.8122,87.9554 70.5,77.5C 70.7605,75.8129 71.4272,74.3129 72.5,73C 76.9054,72.3041 81.2388,72.6374 85.5,74C 93.5258,77.0968 101.359,80.5968 109,84.5C 109.5,84 110,83.5 110.5,83C 109.363,72.8816 109.53,62.715 111,52.5C 112.305,49.6936 114.472,48.8603 117.5,50C 126.755,53.878 134.922,59.378 142,66.5C 142.277,58.4641 142.943,50.4641 144,42.5C 144.718,33.3197 148.884,31.153 156.5,36C 161.046,40.8774 165.213,46.044 169,51.5C 170.784,42.8055 174.117,34.8055 179,27.5C 181.653,24.8059 184.82,23.9726 188.5,25C 196.244,30.631 201.41,38.131 204,47.5C 207.55,37.6913 213.05,29.358 220.5,22.5 Z M 221.5,45.5 C 233.505,59.9669 241.005,76.6335 244,95.5C 248.551,120.359 249.551,145.359 247,170.5C 242.867,185.232 238.534,199.899 234,214.5C 231.216,251.472 243.716,282.306 271.5,307C 295.589,325.403 321.922,329.403 350.5,319C 359.075,316.121 363.242,310.288 363,301.5C 360.091,298.606 356.591,297.773 352.5,299C 347.789,303.38 342.789,307.38 337.5,311C 311.369,316.29 289.202,309.123 271,289.5C 269.418,287.376 269.251,285.21 270.5,283C 274.251,284.709 277.585,287.376 280.5,291C 297.269,302.631 314.936,304.298 333.5,296C 347.454,282.606 363.954,274.106 383,270.5C 391.083,271.241 394.75,275.574 394,283.5C 379.086,309.367 357.252,326.2 328.5,334C 294.571,336.479 267.737,323.979 248,296.5C 238.781,282.895 231.281,268.395 225.5,253C 222.331,252.022 219.497,252.522 217,254.5C 210.043,275.928 198.876,294.761 183.5,311C 144.849,342.999 106.849,342.332 69.5,309C 62.3986,301.289 55.8986,293.122 50,284.5C 48.763,276.063 52.4297,271.396 61,270.5C 78.8902,273.695 94.3902,281.528 107.5,294C 126.695,304.583 145.362,303.583 163.5,291C 166.206,288.629 168.539,285.963 170.5,283C 172.92,282.085 174.253,282.918 174.5,285.5C 172.149,290.362 168.816,294.528 164.5,298C 149.122,309.68 131.789,314.68 112.5,313C 108.462,312.101 104.795,310.434 101.5,308C 98.465,304.63 95.1317,301.63 91.5,299C 81.4312,297.071 78.2645,300.905 82,310.5C 87.3288,316.25 93.8288,320.084 101.5,322C 137.631,329.736 166.797,318.903 189,289.5C 197.806,276.553 204.473,262.553 209,247.5C 212.363,233.756 212.029,220.089 208,206.5C 203.928,194.951 200.261,183.284 197,171.5C 192.827,137.065 196.161,103.398 207,70.5C 210.821,61.5164 215.655,53.183 221.5,45.5 Z M 185.5,46.5 C 196.635,53.0112 199.802,62.3445 195,74.5C 194.115,77 192.948,79.3333 191.5,81.5C 181.03,71.2877 179.03,59.621 185.5,46.5 Z M 256.5,46.5 C 260.462,49.9378 262.462,54.4378 262.5,60C 261.701,68.4266 258.368,75.5932 252.5,81.5C 243.356,68.521 244.69,56.8544 256.5,46.5 Z M 158.5,58.5 C 166.136,67.6454 173.636,76.9787 181,86.5C 181.862,88.087 182.529,89.7536 183,91.5C 179.35,123.898 181.517,155.898 189.5,187.5C 189.167,187.833 188.833,188.167 188.5,188.5C 173.615,174.739 164.448,157.739 161,137.5C 156.025,111.306 155.192,84.9726 158.5,58.5 Z M 283.5,59.5 C 285.197,61.3052 286.03,63.6385 286,66.5C 289.507,96.4227 286.84,125.756 278,154.5C 273.289,167.95 265.622,179.283 255,188.5C 258.076,173.033 260.41,157.366 262,141.5C 262.59,124.787 262.256,108.12 261,91.5C 261.806,88.5544 263.139,85.8877 265,83.5C 271.765,75.9093 277.931,67.9093 283.5,59.5 Z M 124.5,68.5 C 132.51,73.3439 139.01,79.6773 144,87.5C 145.914,95.1895 145.914,102.856 144,110.5C 138,104.5 132,98.5 126,92.5C 123.839,84.5679 123.339,76.5679 124.5,68.5 Z M 318.5,68.5 C 319.455,70.2835 320.122,72.2835 320.5,74.5C 319.941,80.2193 319.107,85.8859 318,91.5C 312.366,98.1357 306.366,104.469 300,110.5C 298.074,102.873 298.074,95.206 300,87.5C 301.08,85.0038 302.414,82.6705 304,80.5C 308.732,76.2584 313.565,72.2584 318.5,68.5 Z M 90.5,89.5 C 111.289,99.3073 130.122,111.974 147,127.5C 150.198,140.624 153.865,153.624 158,166.5C 162.13,175.937 167.63,184.437 174.5,192C 171.053,191.288 167.719,189.955 164.5,188C 150.497,179.336 138.33,168.503 128,155.5C 112.173,135.526 99.6728,113.526 90.5,89.5 Z M 270.5,191.5 C 276.658,183.866 281.824,175.532 286,166.5C 289.923,153.541 293.589,140.541 297,127.5C 313.763,112.112 332.429,99.4451 353,89.5C 340.406,124.432 320.239,154.265 292.5,179C 285.881,184.475 278.548,188.641 270.5,191.5 Z M 61.5,113.5 C 71.4783,115.214 81.145,118.048 90.5,122C 95.9192,127.595 99.9192,134.095 102.5,141.5C 93.6401,141.458 84.9735,139.792 76.5,136.5C 70.2672,129.608 65.2672,121.941 61.5,113.5 Z M 378.5,113.5 C 379.978,113.238 381.311,113.571 382.5,114.5C 378.116,122.103 373.116,129.27 367.5,136C 359.072,138.752 350.572,141.252 342,143.5C 343.296,135.079 347.13,127.912 353.5,122C 361.841,118.831 370.175,115.998 378.5,113.5 Z M 43.5,148.5 C 66.1865,147.86 88.5198,151.026 110.5,158C 118.618,162.451 125.118,168.617 130,176.5C 142.753,187.797 156.919,196.963 172.5,204C 164.403,204.654 156.403,203.987 148.5,202C 126.004,195.752 104.67,186.752 84.5,175C 70.4646,166.654 56.798,157.821 43.5,148.5 Z M 389.5,147.5 C 393.182,147.335 396.848,147.501 400.5,148C 369.854,171.159 336.187,188.826 299.5,201C 289.969,203.505 280.303,204.505 270.5,204C 284.149,198.182 296.815,190.849 308.5,182C 313.698,175.29 319.364,168.956 325.5,163C 333.105,157.908 341.438,154.575 350.5,153C 363.591,150.754 376.591,148.92 389.5,147.5 Z M 218.5,272.5 C 220.716,273.203 222.549,274.536 224,276.5C 235.81,303.645 254.644,324.479 280.5,339C 292.771,342.54 305.104,345.54 317.5,348C 292.753,350.642 270.753,343.975 251.5,328C 236.444,315.623 225.277,300.456 218,282.5C 216.321,278.938 216.487,275.605 218.5,272.5 Z M 213.5,291.5 C 215.246,292.249 216.246,293.583 216.5,295.5C 215.474,299.884 213.641,303.884 211,307.5C 198.39,324.205 182.556,336.705 163.5,345C 154.753,348.049 145.753,349.883 136.5,350.5C 132.282,350.258 128.282,349.258 124.5,347.5C 155.229,345.386 180.729,332.719 201,309.5C 205.03,303.321 209.196,297.321 213.5,291.5 Z M 219.5,309.5 C 220.822,309.33 221.989,309.663 223,310.5C 234.227,333.054 252.06,347.554 276.5,354C 252.407,351.535 233.907,340.035 221,319.5C 218.868,316.303 218.368,312.969 219.5,309.5 Z M 208.5,325.5 C 211.008,328.972 210.841,332.639 208,336.5C 195.383,348.928 180.216,355.095 162.5,355C 178.594,351.538 192.428,344.038 204,332.5C 205.511,330.138 207.011,327.805 208.5,325.5 Z M 221.5,335.5 C 227.249,342.08 233.582,348.247 240.5,354C 249.291,359.042 258.624,362.708 268.5,365C 246.846,366.01 230.512,357.343 219.5,339C 219.862,337.566 220.528,336.399 221.5,335.5 Z M 208.5,350.5 C 209.097,350.735 209.43,351.235 209.5,352C 208.804,353.893 207.97,355.726 207,357.5C 197.42,363.853 186.92,366.353 175.5,365C 185.416,363.806 194.749,360.806 203.5,356C 205.373,354.296 207.04,352.463 208.5,350.5 Z"/></g>
</svg>
